<svg width="250" height="415" viewBox="0 0 250 415" fill="none" xmlns="http://www.w3.org/2000/svg">
<g clip-path="url(#clip0_117_7699)">
<g clip-path="url(#clip1_117_7699)">
<rect x="245.372" y="5.2271" width="404.545" height="240.909" rx="13.6364" transform="rotate(90 245.372 5.2271)" fill="#00007C" stroke="#D2D2FF" stroke-width="9.09091"/>
<g filter="url(#filter0_f_117_7699)">
<path d="M133.659 -25.5403L-40.1155 28.6729C-41.9755 29.2532 -43.013 31.2315 -42.4327 33.0915L-16.3799 116.601C-15.7997 118.461 -13.8214 119.498 -11.9613 118.918L161.813 64.7048C163.673 64.1246 164.711 62.1463 164.131 60.2863L138.078 -23.2231C137.498 -25.0831 135.519 -26.1206 133.659 -25.5403Z" fill="#2A2D32"/>
<path d="M127.807 -15.7771L-31.2881 33.8564L-28.1104 44.0421L130.985 -5.59147L127.807 -15.7771Z" fill="#383D40"/>
<path d="M152.895 51.4414L-12.1699 102.938L-9.96136 110.017L155.104 58.5207L152.895 51.4414Z" fill="#232429"/>
<path d="M7.16998 81.9536C7.11311 81.9713 7.05152 81.9657 6.99876 81.9381C6.94601 81.9104 6.9064 81.8629 6.88866 81.806L-6.95849 37.4205C-6.97624 37.3636 -6.97066 37.302 -6.94299 37.2493C-6.91532 37.1965 -6.86783 37.1569 -6.81096 37.1392C-6.7541 37.1214 -6.69251 37.127 -6.63975 37.1547C-6.58699 37.1823 -6.5474 37.2298 -6.52966 37.2867L7.3175 81.6723C7.32644 81.7004 7.32971 81.73 7.32713 81.7595C7.32454 81.7889 7.31616 81.8175 7.30244 81.8437C7.28872 81.8699 7.26994 81.893 7.2472 81.9119C7.22447 81.9308 7.19822 81.9449 7.16998 81.9536Z" fill="#383D40"/>
<path d="M15.033 79.4952C15.0049 79.5042 14.9752 79.5074 14.9458 79.5048C14.9164 79.5023 14.8877 79.4939 14.8616 79.4801C14.8354 79.4664 14.8122 79.4477 14.7934 79.4249C14.7745 79.4022 14.7604 79.3759 14.7517 79.3477L0.907717 34.9722C0.889975 34.9154 0.89554 34.8538 0.923207 34.801C0.950874 34.7483 0.998368 34.7087 1.05524 34.6909C1.1121 34.6732 1.17369 34.6787 1.22645 34.7064C1.27921 34.7341 1.31882 34.7816 1.33656 34.8384L15.182 79.2184C15.1983 79.2748 15.1918 79.3354 15.164 79.3872C15.1361 79.439 15.0891 79.4777 15.033 79.4952Z" fill="#383D40"/>
<path d="M22.897 77.0412C22.8401 77.059 22.7784 77.0535 22.7255 77.0259C22.6725 76.9983 22.6327 76.9509 22.6146 76.8941L8.77235 32.5242C8.75933 32.4687 8.76784 32.4102 8.79615 32.3607C8.82446 32.3111 8.87047 32.2741 8.92495 32.2571C8.97942 32.2402 9.03831 32.2444 9.08977 32.2691C9.14123 32.2937 9.18145 32.337 9.20233 32.3901L23.046 76.7644C23.062 76.8209 23.0554 76.8813 23.0276 76.933C22.9998 76.9847 22.953 77.0235 22.897 77.0412Z" fill="#383D40"/>
<path d="M30.7604 74.5886C30.7035 74.606 30.642 74.6003 30.5893 74.5727C30.5367 74.5451 30.497 74.4978 30.479 74.4411L16.6382 30.0758C16.6204 30.0189 16.626 29.9573 16.6537 29.9045C16.6814 29.8518 16.7288 29.8122 16.7857 29.7944C16.8426 29.7767 16.9042 29.7823 16.9569 29.8099C17.0097 29.8376 17.0493 29.8851 17.067 29.942L30.9089 74.3107C30.9256 74.3672 30.9194 74.4281 30.8916 74.4801C30.8638 74.5321 30.8166 74.5711 30.7604 74.5886Z" fill="#383D40"/>
<path d="M38.626 72.134C38.5978 72.143 38.5682 72.1463 38.5388 72.1437C38.5093 72.1411 38.4807 72.1327 38.4545 72.119C38.4284 72.1052 38.4052 72.0865 38.3863 72.0638C38.3675 72.041 38.3533 72.0148 38.3447 71.9865L24.5073 27.6324C24.4896 27.5755 24.4951 27.5139 24.5228 27.4612C24.5505 27.4084 24.598 27.3688 24.6548 27.3511C24.7117 27.3333 24.7733 27.3389 24.8261 27.3666C24.8788 27.3942 24.9184 27.4417 24.9362 27.4986L38.7759 71.8606C38.7912 71.9167 38.7841 71.9766 38.7562 72.0276C38.7282 72.0786 38.6815 72.1168 38.626 72.134Z" fill="#383D40"/>
<path d="M46.4849 69.6828C46.4567 69.6917 46.427 69.695 46.3975 69.6925C46.368 69.6899 46.3393 69.6815 46.3131 69.6679C46.2869 69.6542 46.2636 69.6355 46.2446 69.6128C46.2256 69.5901 46.2113 69.5638 46.2025 69.5356L32.3651 25.1814C32.3521 25.1259 32.3606 25.0675 32.3889 25.0179C32.4172 24.9684 32.4632 24.9314 32.5177 24.9144C32.5722 24.8974 32.6311 24.9017 32.6825 24.9263C32.734 24.951 32.7742 24.9942 32.7951 25.0473L46.6328 69.4026C46.6502 69.4593 46.6444 69.5207 46.6167 69.5732C46.589 69.6257 46.5416 69.6651 46.4849 69.6828Z" fill="#383D40"/>
<path d="M54.3506 67.2288C54.2937 67.2462 54.2323 67.2404 54.1796 67.2128C54.1269 67.1852 54.0873 67.1379 54.0693 67.0812L40.2319 22.7271C40.2142 22.6702 40.2198 22.6087 40.2474 22.5559C40.2751 22.5031 40.3226 22.4635 40.3795 22.4458C40.4363 22.4281 40.4979 22.4336 40.5507 22.4613C40.6034 22.489 40.643 22.5365 40.6608 22.5933L54.4985 66.9486C54.5159 67.0053 54.5101 67.0667 54.4824 67.1192C54.4546 67.1717 54.4073 67.2111 54.3506 67.2288Z" fill="#383D40"/>
<path d="M62.2146 64.7753C62.1865 64.7841 62.1569 64.7872 62.1275 64.7846C62.0981 64.7819 62.0696 64.7735 62.0434 64.7598C62.0173 64.7461 61.9941 64.7274 61.9752 64.7047C61.9564 64.6821 61.9421 64.6559 61.9333 64.6278L48.0991 20.2838C48.0814 20.2269 48.087 20.1653 48.1146 20.1125C48.1423 20.0598 48.1898 20.0202 48.2467 20.0024C48.3035 19.9847 48.3651 19.9903 48.4179 20.0179C48.4706 20.0456 48.5102 20.0931 48.528 20.15L62.3622 64.494C62.3796 64.5509 62.3739 64.6123 62.3462 64.665C62.3186 64.7176 62.2713 64.7573 62.2146 64.7753Z" fill="#383D40"/>
<path d="M70.0794 62.3226C70.0513 62.3314 70.0217 62.3345 69.9923 62.3319C69.9629 62.3292 69.9343 62.3208 69.9082 62.3071C69.8821 62.2934 69.8589 62.2747 69.84 62.252C69.8211 62.2294 69.8069 62.2032 69.7981 62.175L55.9653 17.8355C55.9476 17.7787 55.9532 17.7171 55.9808 17.6643C56.0085 17.6116 56.056 17.5719 56.1129 17.5542C56.1697 17.5365 56.2313 17.542 56.2841 17.5697C56.3368 17.5974 56.3764 17.6449 56.3942 17.7017L70.2266 62.0401C70.2444 62.0971 70.2389 62.1588 70.2113 62.2117C70.1837 62.2647 70.1363 62.3045 70.0794 62.3226Z" fill="#383D40"/>
<path d="M77.9419 59.8687C77.9138 59.8775 77.8842 59.8807 77.8548 59.878C77.8254 59.8753 77.7968 59.8669 77.7707 59.8532C77.7446 59.8395 77.7214 59.8208 77.7025 59.7982C77.6836 59.7755 77.6694 59.7493 77.6606 59.7212L63.8296 15.3873C63.8118 15.3304 63.8174 15.2688 63.8451 15.2161C63.8727 15.1633 63.9202 15.1237 63.9771 15.106C64.034 15.0882 64.0956 15.0938 64.1483 15.1215C64.2011 15.1491 64.2407 15.1966 64.2584 15.2535L78.0888 59.5851C78.0981 59.6134 78.1016 59.6432 78.0993 59.6729C78.0969 59.7025 78.0886 59.7314 78.075 59.7578C78.0613 59.7842 78.0425 59.8076 78.0196 59.8267C77.9968 59.8457 77.9704 59.86 77.9419 59.8687Z" fill="#383D40"/>
<path d="M85.8058 57.415C85.7775 57.4238 85.7478 57.427 85.7183 57.4243C85.6889 57.4216 85.6602 57.4131 85.634 57.3992C85.6078 57.3854 85.5847 57.3666 85.5658 57.3438C85.5469 57.321 85.5328 57.2947 85.5241 57.2664L71.6948 12.9381C71.6771 12.8812 71.6827 12.8196 71.7103 12.7668C71.738 12.7141 71.7855 12.6745 71.8423 12.6567C71.8992 12.639 71.9608 12.6446 72.0136 12.6722C72.0663 12.6999 72.1059 12.7474 72.1237 12.8043L85.9522 57.1303C85.9614 57.1586 85.9649 57.1885 85.9625 57.2181C85.96 57.2478 85.9518 57.2767 85.9382 57.3031C85.9246 57.3296 85.9059 57.3531 85.8832 57.3723C85.8604 57.3915 85.8341 57.406 85.8058 57.415Z" fill="#383D40"/>
<path d="M93.6703 54.9621C93.6421 54.9709 93.6125 54.9741 93.5831 54.9714C93.5537 54.9687 93.5252 54.9603 93.499 54.9466C93.4729 54.9329 93.4498 54.9142 93.4309 54.8916C93.412 54.8689 93.3977 54.8428 93.3889 54.8146L79.561 10.4908C79.5433 10.4339 79.5489 10.3723 79.5766 10.3196C79.6042 10.2668 79.6517 10.2272 79.7086 10.2095C79.7654 10.1917 79.827 10.1973 79.8798 10.225C79.9326 10.2526 79.9721 10.3001 79.9899 10.357L93.8167 54.6775C93.8259 54.7058 93.8294 54.7356 93.8269 54.7652C93.8245 54.7949 93.8163 54.8238 93.8027 54.8502C93.789 54.8767 93.7704 54.9002 93.7476 54.9194C93.7249 54.9386 93.6986 54.9531 93.6703 54.9621Z" fill="#383D40"/>
<path d="M101.533 52.5084C101.476 52.5258 101.415 52.5201 101.362 52.4925C101.309 52.4649 101.27 52.4176 101.252 52.3609L87.4253 8.04157C87.4076 7.9847 87.4131 7.92311 87.4408 7.87035C87.4685 7.81759 87.516 7.77799 87.5728 7.76025C87.6297 7.74251 87.6913 7.74808 87.7441 7.77575C87.7968 7.80341 87.8364 7.85091 87.8541 7.90778L101.679 52.2226C101.689 52.251 101.692 52.2809 101.69 52.3107C101.688 52.3405 101.68 52.3696 101.666 52.3962C101.653 52.4229 101.634 52.4465 101.611 52.4657C101.588 52.485 101.562 52.4995 101.533 52.5084Z" fill="#383D40"/>
<path d="M109.398 50.0555C109.369 50.0645 109.34 50.0678 109.31 50.0652C109.281 50.0626 109.252 50.0542 109.226 50.0405C109.2 50.0268 109.177 50.008 109.158 49.9853C109.139 49.9625 109.125 49.9363 109.116 49.908L95.2915 5.5943C95.2738 5.53743 95.2793 5.47585 95.307 5.42309C95.3347 5.37033 95.3822 5.33073 95.439 5.31299C95.4959 5.29525 95.5575 5.30082 95.6102 5.32849C95.663 5.35615 95.7026 5.40364 95.7204 5.46051L109.542 49.7641C109.552 49.7927 109.557 49.8231 109.555 49.8534C109.553 49.8838 109.546 49.9135 109.532 49.9408C109.519 49.968 109.5 49.9922 109.477 50.012C109.454 50.0317 109.427 50.0465 109.398 50.0555Z" fill="#383D40"/>
<path d="M117.262 47.6027C117.234 47.6115 117.204 47.6146 117.175 47.6119C117.145 47.6092 117.116 47.6007 117.09 47.5869C117.064 47.5731 117.041 47.5542 117.022 47.5314C117.003 47.5086 116.989 47.4823 116.98 47.454L103.158 3.14704C103.14 3.09017 103.146 3.02859 103.173 2.97583C103.201 2.92308 103.248 2.88347 103.305 2.86572C103.362 2.84798 103.424 2.85356 103.476 2.88123C103.529 2.9089 103.569 2.95638 103.587 3.01324L117.406 47.3112C117.417 47.3398 117.421 47.3702 117.419 47.4005C117.417 47.4308 117.41 47.4604 117.396 47.4876C117.383 47.5148 117.364 47.5391 117.341 47.5588C117.318 47.5786 117.291 47.5935 117.262 47.6027Z" fill="#383D40"/>
<path d="M125.122 45.1422C125.065 45.1596 125.003 45.1539 124.951 45.1263C124.898 45.0987 124.858 45.0514 124.84 44.9947L111.021 0.697825C111.003 0.640957 111.009 0.579372 111.036 0.526615C111.064 0.473857 111.112 0.434249 111.169 0.416507C111.225 0.398766 111.287 0.404344 111.34 0.432011C111.392 0.459678 111.432 0.507174 111.45 0.564043L125.268 44.8575C125.278 44.8858 125.281 44.9157 125.279 44.9454C125.277 44.9751 125.268 45.0041 125.255 45.0306C125.241 45.057 125.222 45.0806 125.199 45.0997C125.177 45.1189 125.15 45.1333 125.122 45.1422Z" fill="#383D40"/>
<path d="M132.986 42.6882C132.929 42.706 132.867 42.7004 132.815 42.6727C132.762 42.645 132.722 42.5976 132.705 42.5407L118.887 -1.74945C118.869 -1.80632 118.875 -1.86791 118.903 -1.92067C118.93 -1.97342 118.978 -2.01303 119.035 -2.03077C119.092 -2.04851 119.153 -2.04294 119.206 -2.01527C119.259 -1.9876 119.298 -1.94011 119.316 -1.88324L133.133 42.4046C133.142 42.4329 133.145 42.4627 133.143 42.4923C133.14 42.5219 133.132 42.5507 133.118 42.5771C133.105 42.6034 133.086 42.6268 133.063 42.6459C133.041 42.665 133.014 42.6794 132.986 42.6882Z" fill="#383D40"/>
<path d="M140.849 40.2334C140.821 40.2423 140.792 40.2456 140.762 40.243C140.733 40.2404 140.704 40.232 140.678 40.2183C140.652 40.2046 140.629 40.1858 140.61 40.1631C140.591 40.1403 140.577 40.1141 140.568 40.0859L126.752 -4.19867C126.735 -4.25554 126.74 -4.31712 126.768 -4.36988C126.796 -4.42264 126.843 -4.46225 126.9 -4.47999C126.957 -4.49773 127.018 -4.49215 127.071 -4.46448C127.124 -4.43682 127.164 -4.38933 127.181 -4.33246L140.997 39.9509C141.006 39.9791 141.009 40.0089 141.006 40.0383C141.004 40.0678 140.995 40.0965 140.982 40.1228C140.968 40.149 140.949 40.1723 140.927 40.1913C140.904 40.2103 140.878 40.2246 140.849 40.2334Z" fill="#383D40"/>
<path d="M148.712 37.7794C148.655 37.7971 148.593 37.7915 148.54 37.7639C148.488 37.7362 148.448 37.6887 148.43 37.6319L134.617 -6.64592C134.599 -6.70279 134.605 -6.76439 134.632 -6.81714C134.66 -6.8699 134.707 -6.9095 134.764 -6.92724C134.821 -6.94498 134.883 -6.93941 134.935 -6.91174C134.988 -6.88407 135.028 -6.83658 135.046 -6.77972L148.859 37.4981C148.868 37.5262 148.871 37.5559 148.869 37.5853C148.866 37.6147 148.858 37.6433 148.844 37.6695C148.83 37.6957 148.812 37.7189 148.789 37.7377C148.766 37.7566 148.74 37.7707 148.712 37.7794Z" fill="#383D40"/>
<path d="M148.717 37.7968L-16.4223 89.316C-16.4792 89.3338 -16.5407 89.3282 -16.5935 89.3006C-16.6463 89.2729 -16.6859 89.2254 -16.7036 89.1685C-16.7214 89.1117 -16.7158 89.0501 -16.6881 88.9973C-16.6604 88.9446 -16.6129 88.9049 -16.5561 88.8872L148.583 37.368C148.64 37.3502 148.702 37.3558 148.754 37.3835C148.807 37.4112 148.847 37.4586 148.865 37.5155C148.882 37.5724 148.877 37.634 148.849 37.6867C148.821 37.7395 148.774 37.7791 148.717 37.7968Z" fill="#383D40"/>
<path d="M146.414 30.4151L-18.7313 81.9141C-18.7601 81.9254 -18.791 81.9307 -18.822 81.9296C-18.8531 81.9285 -18.8835 81.921 -18.9115 81.9076C-18.9395 81.8942 -18.9644 81.8751 -18.9847 81.8517C-19.005 81.8282 -19.0202 81.8008 -19.0294 81.7712C-19.0387 81.7416 -19.0417 81.7104 -19.0384 81.6795C-19.035 81.6487 -19.0253 81.6189 -19.0099 81.5919C-18.9946 81.565 -18.9738 81.5415 -18.9489 81.523C-18.924 81.5044 -18.8956 81.4912 -18.8654 81.4841L146.281 29.9862C146.337 29.9685 146.399 29.9741 146.452 30.0017C146.505 30.0294 146.544 30.0769 146.562 30.1338C146.58 30.1906 146.574 30.2522 146.546 30.305C146.519 30.3577 146.471 30.3973 146.414 30.4151Z" fill="#383D40"/>
<path d="M144.111 23.0317L-21.0414 74.5094C-21.0696 74.5182 -21.0992 74.5214 -21.1286 74.5187C-21.158 74.516 -21.1865 74.5076 -21.2126 74.4939C-21.2388 74.4802 -21.2619 74.4615 -21.2808 74.4389C-21.2997 74.4162 -21.314 74.39 -21.3228 74.3619C-21.3315 74.3337 -21.3347 74.3041 -21.332 74.2747C-21.3294 74.2454 -21.3209 74.2168 -21.3072 74.1907C-21.2935 74.1646 -21.2748 74.1414 -21.2522 74.1225C-21.2295 74.1036 -21.2034 74.0893 -21.1752 74.0806L143.977 22.6029C144.034 22.5851 144.096 22.5907 144.148 22.6184C144.201 22.6461 144.241 22.6935 144.258 22.7504C144.276 22.8073 144.271 22.8689 144.243 22.9216C144.215 22.9744 144.168 23.014 144.111 23.0317Z" fill="#383D40"/>
<path d="M141.808 15.6496L-23.3579 67.108C-23.4147 67.1258 -23.4763 67.1202 -23.5291 67.0925C-23.5818 67.0649 -23.6214 67.0174 -23.6392 66.9605C-23.6569 66.9036 -23.6513 66.8421 -23.6237 66.7893C-23.596 66.7365 -23.5485 66.6969 -23.4916 66.6792L141.674 15.2196C141.729 15.2066 141.788 15.2151 141.837 15.2434C141.887 15.2717 141.924 15.3177 141.941 15.3722C141.958 15.4267 141.954 15.4856 141.929 15.537C141.904 15.5885 141.861 15.6287 141.808 15.6496Z" fill="#383D40"/>
<path d="M139.504 8.26347L-25.6713 59.7028C-25.7282 59.7205 -25.7898 59.7149 -25.8425 59.6873C-25.8953 59.6596 -25.9349 59.6121 -25.9526 59.5552C-25.9704 59.4984 -25.9648 59.4368 -25.9371 59.384C-25.9095 59.3313 -25.862 59.2917 -25.8051 59.2739L139.369 7.83496C139.426 7.81722 139.488 7.82281 139.54 7.85047C139.593 7.87814 139.633 7.92563 139.65 7.9825C139.668 8.03937 139.663 8.10095 139.635 8.15371C139.607 8.20647 139.56 8.24607 139.503 8.26381L139.504 8.26347Z" fill="#383D40"/>
<path d="M137.201 0.883711L-27.9828 52.3024C-28.0397 52.3201 -28.1013 52.3145 -28.1541 52.2869C-28.2068 52.2592 -28.2464 52.2117 -28.2642 52.1548C-28.2819 52.098 -28.2763 52.0364 -28.2487 51.9836C-28.221 51.9309 -28.1735 51.8913 -28.1166 51.8735L137.068 0.454864C137.125 0.437123 137.186 0.442701 137.239 0.470368C137.292 0.498035 137.331 0.545516 137.349 0.602384C137.367 0.659253 137.361 0.720846 137.333 0.773603C137.306 0.826361 137.258 0.865969 137.201 0.883711Z" fill="#383D40"/>
<path d="M134.899 -6.49836L-30.2953 44.9C-30.3522 44.9178 -30.4138 44.9122 -30.4666 44.8845C-30.5193 44.8569 -30.5589 44.8094 -30.5767 44.7525C-30.5944 44.6956 -30.5888 44.6341 -30.5612 44.5813C-30.5335 44.5285 -30.486 44.4889 -30.4291 44.4712L134.765 -6.9272C134.822 -6.94495 134.884 -6.93937 134.936 -6.9117C134.989 -6.88403 135.029 -6.83655 135.047 -6.77968C135.064 -6.72281 135.059 -6.66122 135.031 -6.60847C135.003 -6.55571 134.956 -6.5161 134.899 -6.49836Z" fill="#383D40"/>
<path d="M147.71 35.4903C145.754 36.1008 139.719 36.7785 132.978 36.2947C127.048 35.8694 118.758 34.4139 112.946 29.9013C109.034 26.8641 106.325 24.6097 104.347 22.9639C99.96 19.3138 99.3952 18.8421 97.5037 19.4679L97.4082 19.4977C95.4906 20.0639 95.2965 20.7724 93.762 26.2662C93.0705 28.7449 92.1229 32.14 90.6323 36.8625C88.4184 43.8789 82.4254 49.7905 77.7891 53.5122C72.5185 57.7435 67.1693 60.6171 65.2125 61.2275L64.4806 61.4559C62.5238 62.0663 56.4896 62.7441 49.748 62.2603C43.8169 61.8353 35.5267 60.3798 29.7148 55.8672C25.8045 52.8296 23.0945 50.5756 21.1163 48.9298C16.7291 45.2797 16.1643 44.808 14.2738 45.4335L14.1784 45.4632C12.2608 46.0294 12.0656 46.7383 10.531 52.2321C9.83959 54.7108 8.89313 58.1056 7.40248 62.828C5.1847 69.8556 -0.584486 75.6911 -5.03352 79.3495C-10.1621 83.566 -15.241 86.327 -17.2101 86.9413C-17.3078 86.966 -17.4112 86.9523 -17.4991 86.9031C-17.587 86.8539 -17.6528 86.7728 -17.6828 86.6767C-17.7128 86.5805 -17.7048 86.4764 -17.6604 86.386C-17.6161 86.2955 -17.5388 86.2254 -17.4444 86.1902C-15.592 85.6123 -10.5249 82.8452 -5.53355 78.7417C-1.16691 75.1509 4.49733 69.4331 6.65237 62.5915C8.13979 57.8823 9.08351 54.4946 9.7741 52.0211C11.3393 46.4081 11.6192 45.3981 13.9497 44.7104L14.0339 44.6842C16.3346 43.9282 17.141 44.5981 21.6201 48.3254C23.5935 49.9679 26.2973 52.2177 30.1974 55.246C35.8553 59.6404 43.9822 61.0582 49.8037 61.4754C56.4446 61.9524 62.3468 61.2974 64.2463 60.7048L64.9782 60.4765C66.8777 59.8839 72.1054 57.0667 77.2959 52.8986C81.8486 49.2448 87.727 43.4553 89.8833 36.6256C91.3707 31.9164 92.3144 28.5287 93.0039 26.0555C94.5691 20.4426 94.849 19.4325 97.1807 18.7445L97.2637 18.7186C99.5644 17.9627 100.371 18.6326 104.85 22.3599C106.824 24.002 109.527 26.2521 113.428 29.2801C119.085 33.6749 127.212 35.0926 133.035 35.5095C139.674 35.9869 145.577 35.3319 147.476 34.7393C147.574 34.7146 147.677 34.7282 147.765 34.7775C147.853 34.8267 147.919 34.9077 147.949 35.0039C147.979 35.1001 147.971 35.2041 147.926 35.2946C147.882 35.3851 147.805 35.4551 147.71 35.4903Z" fill="#D5D5D5"/>
<path d="M64.7018 59.2467L60.9473 60.418L62.0324 63.8963L65.7869 62.725L64.7018 59.2467Z" fill="#ECB723"/>
<path d="M147.609 33.3824L143.854 34.5537L144.94 38.032L148.694 36.8607L147.609 33.3824Z" fill="#ECB723"/>
<path d="M37.8568 70.7517C38.4524 70.255 38.5326 69.3694 38.0359 68.7738C37.5391 68.1782 36.6536 68.098 36.058 68.5947C35.4623 69.0915 35.3822 69.977 35.8789 70.5726C36.3756 71.1683 37.2611 71.2484 37.8568 70.7517Z" fill="#ECB723"/>
<path d="M94.8671 52.6467C95.2273 51.9598 94.9625 51.111 94.2756 50.7508C93.5887 50.3906 92.7399 50.6554 92.3797 51.3423C92.0195 52.0291 92.2844 52.8779 92.9712 53.2381C93.6581 53.5983 94.5069 53.3335 94.8671 52.6467Z" fill="#ECB723"/>
<path d="M122.754 43.9465C123.114 43.2596 122.849 42.4108 122.162 42.0506C121.475 41.6904 120.627 41.9552 120.266 42.6421C119.906 43.3289 120.171 44.1777 120.858 44.5379C121.545 44.8981 122.394 44.6333 122.754 43.9465Z" fill="#ECB723"/>
<path d="M146.185 35.4203L121.46 43.1338L121.627 43.6704L146.352 35.9569L146.185 35.4203Z" fill="#ECB723"/>
<path d="M93.5733 51.8343L36.9072 69.5127L37.0746 70.0493L93.7407 52.371L93.5733 51.8343Z" fill="#ECB723"/>
<path d="M14.7144 76.4353L-17.6533 86.5332L-17.4859 87.0698L14.8819 76.9719L14.7144 76.4353Z" fill="#ECB723"/>
<path d="M15.6776 77.3508C16.0378 76.6639 15.773 75.8151 15.0862 75.4549C14.3993 75.0947 13.5505 75.3595 13.1903 76.0464C12.8301 76.7332 13.0949 77.582 13.7818 77.9422C14.4686 78.3024 15.3174 78.0376 15.6776 77.3508Z" fill="#ECB723"/>
<path d="M13.2969 98.7981L2.32086 102.222C2.26399 102.24 2.2024 102.234 2.14965 102.207C2.09689 102.179 2.05729 102.132 2.03955 102.075C2.02181 102.018 2.02737 101.956 2.05504 101.904C2.08271 101.851 2.1302 101.811 2.18707 101.793L13.1631 98.3692C13.2199 98.3515 13.2815 98.3571 13.3343 98.3847C13.387 98.4124 13.4266 98.4599 13.4444 98.5168C13.4621 98.5736 13.4565 98.6352 13.4289 98.688C13.4012 98.7407 13.3537 98.7803 13.2969 98.7981Z" fill="#D5D5D5"/>
<path d="M11.0462 99.9039C10.9922 99.1406 10.3296 98.5656 9.56636 98.6196C8.80309 98.6736 8.22812 99.3361 8.28211 100.099C8.33611 100.863 8.99863 101.438 9.7619 101.384C10.5252 101.33 11.1002 100.667 11.0462 99.9039Z" fill="#2A2D32"/>
<path d="M10.1684 101.599C9.85375 101.697 9.51709 101.699 9.20103 101.606C8.88497 101.513 8.60369 101.328 8.39275 101.074C8.18181 100.821 8.05068 100.511 8.01594 100.183C7.98119 99.8557 8.0444 99.525 8.19757 99.2332C8.35073 98.9414 8.58697 98.7015 8.87643 98.5439C9.16589 98.3864 9.49557 98.3182 9.82379 98.3479C10.152 98.3777 10.464 98.5041 10.7204 98.7112C10.9768 98.9183 11.166 99.1967 11.2642 99.5114C11.3952 99.9335 11.3534 100.39 11.148 100.782C10.9426 101.173 10.5903 101.467 10.1684 101.599ZM9.34284 98.9527C9.13411 99.0178 8.94936 99.1433 8.81198 99.3134C8.6746 99.4836 8.59076 99.6906 8.57104 99.9084C8.55133 100.126 8.59663 100.345 8.70122 100.537C8.80581 100.729 8.96499 100.886 9.15864 100.987C9.35228 101.089 9.5717 101.131 9.78913 101.107C10.0066 101.084 10.2123 100.997 10.3802 100.857C10.5481 100.717 10.6707 100.53 10.7325 100.321C10.7944 100.111 10.7926 99.8875 10.7275 99.6788C10.6399 99.3991 10.4449 99.1655 10.1853 99.0294C9.92575 98.8933 9.62275 98.8657 9.34284 98.9527Z" fill="#D5D5D5"/>
<path d="M18.7474 95.9621L17.7773 98.3223L20.8874 97.352L18.7474 95.9621Z" fill="#D5D5D5"/>
<path d="M16.55 98.6871L17.4089 98.4192L17.9918 96.9979L17.4014 96.6141L16.55 98.6871Z" fill="#D5D5D5"/>
<path d="M27.7596 96.2653L82.1164 79.3074C82.3502 79.2344 82.5674 79.1161 82.7555 78.9593C82.9436 78.8024 83.0989 78.61 83.2127 78.3931C83.3265 78.1762 83.3964 77.939 83.4185 77.6951C83.4405 77.4511 83.4144 77.2052 83.3414 76.9714C83.2685 76.7376 83.1502 76.5204 82.9933 76.3323C82.8364 76.1442 82.6441 75.9888 82.4271 75.8751C82.2102 75.7613 81.973 75.6914 81.7291 75.6693C81.4852 75.6473 81.2393 75.6734 81.0055 75.7464L26.6487 92.7043C26.1765 92.8516 25.7821 93.1805 25.5524 93.6186C25.3226 94.0566 25.2763 94.568 25.4236 95.0403C25.571 95.5125 25.8998 95.9068 26.3379 96.1366C26.776 96.3663 27.2874 96.4126 27.7596 96.2653Z" fill="#31373D"/>
<path fill-rule="evenodd" clip-rule="evenodd" d="M19.9066 89.8372L20.5948 88.2833L18.457 88.9502L19.9066 89.8372Z" fill="#D5D5D5"/>
<path d="M17.4504 85.7507L15.709 86.2939L15.7759 86.5084L17.5173 85.9651L17.4504 85.7507Z" fill="#D5D5D5"/>
<path d="M15.1998 86.4532L14.79 86.5811L14.8569 86.7955L15.2667 86.6676L15.1998 86.4532Z" fill="#D5D5D5"/>
<path d="M17.7062 86.571L15.9648 87.1143L16.0317 87.3287L17.7731 86.7854L17.7062 86.571Z" fill="#D5D5D5"/>
<path d="M15.4547 87.2725L15.0449 87.4004L15.1118 87.6148L15.5216 87.487L15.4547 87.2725Z" fill="#D5D5D5"/>
<path d="M17.9582 87.3776L16.2168 87.9209L16.2837 88.1353L18.0251 87.5921L17.9582 87.3776Z" fill="#D5D5D5"/>
<path d="M15.7077 88.0802L15.2979 88.208L15.3648 88.4225L15.7746 88.2946L15.7077 88.0802Z" fill="#D5D5D5"/>
<path d="M19.2242 88.3738L14.9498 89.7073C14.9217 89.7161 14.892 89.7193 14.8627 89.7166C14.8333 89.714 14.8047 89.7055 14.7786 89.6918C14.7525 89.6781 14.7293 89.6594 14.7104 89.6368C14.6915 89.6141 14.6773 89.588 14.6685 89.5598L13.5767 86.0602C13.5592 86.0033 13.565 85.9418 13.5926 85.8892C13.6202 85.8365 13.6675 85.7968 13.7242 85.7788L17.9986 84.4453C18.0554 84.4276 18.117 84.4332 18.1698 84.4608C18.2226 84.4885 18.2622 84.536 18.2799 84.5929L19.3717 88.0925C19.3807 88.1207 19.3839 88.1503 19.3813 88.1797C19.3788 88.2092 19.3704 88.2378 19.3566 88.264C19.3429 88.2901 19.3241 88.3133 19.3014 88.3322C19.2787 88.351 19.2524 88.3652 19.2242 88.3738ZM15.0316 89.2112L18.8759 88.0119L17.9183 84.9422L14.0739 86.1416L15.0316 89.2112Z" fill="#D5D5D5"/>
<path fill-rule="evenodd" clip-rule="evenodd" d="M9.58651 88.1662C9.30015 88.0159 8.98697 87.9235 8.66488 87.8943C8.34279 87.8651 8.01809 87.8996 7.70935 87.996C7.40061 88.0923 7.11389 88.2485 6.86555 88.4557C6.61721 88.6628 6.41213 88.9169 6.26202 89.2034L5.4455 90.7604L7.00285 91.578C7.58161 91.8794 8.25609 91.9394 8.87899 91.7451C9.50188 91.5508 10.0226 91.1178 10.3273 90.5409L11.1435 88.9828L9.58651 88.1662ZM8.70593 91.1884C8.44548 91.2699 8.1667 91.2723 7.90487 91.1953C7.64304 91.1184 7.40991 90.9655 7.23499 90.756C7.06007 90.5465 6.9512 90.2899 6.92216 90.0185C6.89313 89.7472 6.94524 89.4733 7.07188 89.2315C7.19853 88.9898 7.39402 88.7911 7.63364 88.6604C7.87326 88.5298 8.14624 88.4732 8.41804 88.4977C8.68985 88.5223 8.94826 88.6269 9.1606 88.7983C9.37294 88.9698 9.52966 89.2004 9.61093 89.4609C9.71984 89.81 9.6857 90.188 9.51601 90.512C9.34631 90.8359 9.05493 91.0792 8.70593 91.1884Z" fill="#D5D5D5"/>
<path fill-rule="evenodd" clip-rule="evenodd" d="M9.13488 89.3977C9.15817 89.4724 9.15878 89.5523 9.13664 89.6273C9.1145 89.7023 9.0706 89.7691 9.0105 89.8191C8.9504 89.8691 8.8768 89.9002 8.79902 89.9084C8.72125 89.9166 8.64279 89.9015 8.57358 89.8651C8.50437 89.8287 8.44753 89.7726 8.41025 89.7038C8.37296 89.6351 8.35692 89.5568 8.36415 89.4789C8.37137 89.401 8.40153 89.3271 8.45083 89.2663C8.50012 89.2056 8.56633 89.1609 8.64106 89.1378C8.69055 89.1224 8.7426 89.1169 8.79423 89.1216C8.84585 89.1263 8.89604 89.1411 8.94191 89.1653C8.98778 89.1894 9.02845 89.2224 9.06156 89.2623C9.09468 89.3022 9.11959 89.3482 9.13488 89.3977Z" fill="#D5D5D5"/>
<path fill-rule="evenodd" clip-rule="evenodd" d="M11.6439 92.4153L12.3321 90.8614L10.1943 91.5283L11.6439 92.4153Z" fill="#D5D5D5"/>
<path d="M27.9651 85.9075L23.9714 87.1534L22.7266 83.1631L26.7169 81.9182L27.9651 85.9075ZM24.2699 86.5896L27.4024 85.6124L26.4251 82.4799L23.2926 83.4571L24.2699 86.5896Z" fill="#D5D5D5"/>
<path d="M23.0185 82.4985L22.0215 82.8096L22.3325 83.8066L23.3295 83.4955L23.0185 82.4985Z" fill="#D5D5D5"/>
<path d="M25.0244 81.8726L24.0273 82.1836L24.3384 83.1806L25.3354 82.8696L25.0244 81.8726Z" fill="#D5D5D5"/>
<path d="M27.0429 81.2436L26.0459 81.5547L26.3569 82.5517L27.354 82.2407L27.0429 81.2436Z" fill="#D5D5D5"/>
<path d="M24.2626 86.4878L23.2656 86.7988L23.5767 87.7958L24.5737 87.4848L24.2626 86.4878Z" fill="#D5D5D5"/>
<path d="M28.287 85.2319L27.29 85.543L27.6011 86.54L28.5981 86.2289L28.287 85.2319Z" fill="#D5D5D5"/>
<path d="M23.6142 84.4106L22.6172 84.7217L22.9282 85.7187L23.9252 85.4076L23.6142 84.4106Z" fill="#D5D5D5"/>
<path d="M27.6396 83.1558L26.6426 83.4668L26.9536 84.4638L27.9506 84.1528L27.6396 83.1558Z" fill="#D5D5D5"/>
<path d="M25.4388 85.0141C25.6751 84.9404 25.8068 84.6891 25.7331 84.4528C25.6594 84.2166 25.4082 84.0848 25.1719 84.1585C24.9357 84.2322 24.8039 84.4835 24.8776 84.7198C24.9513 84.956 25.2026 85.0878 25.4388 85.0141Z" fill="#D5D5D5"/>
<path d="M35.0453 78.1219L30.1686 79.6433C29.3037 79.9131 28.8213 80.833 29.0911 81.6979L30.188 85.214C30.4579 86.0789 31.3778 86.5613 32.2427 86.2915L37.1194 84.7701C37.9843 84.5002 38.4668 83.5804 38.1969 82.7154L37.1 79.1993C36.8302 78.3344 35.9103 77.852 35.0453 78.1219Z" fill="#1C1E21"/>
<path d="M36.6276 83.8124L35.488 84.1679L34.7619 81.8405C34.716 81.6757 34.6374 81.522 34.5309 81.3882C34.4244 81.2544 34.2921 81.1434 34.1419 81.0617C33.9917 80.9799 33.8266 80.9292 33.6564 80.9125C33.4862 80.8958 33.3144 80.9134 33.1512 80.9644C32.988 81.0153 32.8366 81.0985 32.7061 81.209C32.5756 81.3195 32.4687 81.4551 32.3916 81.6077C32.3145 81.7603 32.2688 81.9269 32.2572 82.0975C32.2457 82.2681 32.2685 82.4393 32.3244 82.6009L33.0502 84.9273L31.9106 85.2828L31.1848 82.9564C30.9897 82.3311 31.051 81.6539 31.3552 81.0738C31.6595 80.4937 32.1817 80.0581 32.807 79.8631C33.4323 79.668 34.1096 79.7293 34.6897 80.0335C35.2698 80.3377 35.7053 80.86 35.9004 81.4853L36.6276 83.8124Z" fill="#3DBBFD"/>
<path d="M32.666 83.6923L31.5264 84.0479L31.9117 85.2829L33.0513 84.9274L32.666 83.6923Z" fill="#216B8E"/>
<path d="M36.2431 82.5771L35.1035 82.9326L35.4888 84.1677L36.6284 83.8121L36.2431 82.5771Z" fill="#216B8E"/>
<path fill-rule="evenodd" clip-rule="evenodd" d="M83.3987 70.0299L84.0868 68.476L81.9502 69.1426L83.3987 70.0299Z" fill="#D5D5D5"/>
<path d="M82.4109 66.5412L79.2393 64.8779L77.576 68.0496L80.7476 69.7128L82.4109 66.5412Z" fill="#D5D5D5"/>
<path d="M89.6351 61.9611L87.7354 62.5537L88.3182 64.422L90.2179 63.8293L89.6351 61.9611Z" fill="#D5D5D5"/>
<path d="M89.237 66.3321L87.8897 66.7525C87.6334 66.8321 87.356 66.8067 87.1184 66.682C86.8808 66.5572 86.7024 66.3432 86.6225 66.087L86.2078 64.7577C86.163 64.6152 86.0636 64.4963 85.9314 64.4269C85.7992 64.3576 85.6448 64.3435 85.5022 64.3876L85.1148 64.5085C85.058 64.5262 84.9964 64.5207 84.9436 64.493C84.8908 64.4653 84.8512 64.4178 84.8335 64.3609C84.8158 64.3041 84.8213 64.2425 84.849 64.1897C84.8767 64.1369 84.9242 64.0973 84.981 64.0796L85.3684 63.9587C85.6248 63.8791 85.9023 63.9044 86.1401 64.0291C86.3778 64.1537 86.5564 64.3676 86.6367 64.6238L87.0514 65.9532C87.0958 66.0956 87.195 66.2146 87.327 66.2841C87.4591 66.3535 87.6133 66.3677 87.7559 66.3236L89.1032 65.9032C89.2455 65.8585 89.3643 65.7591 89.4335 65.6269C89.5026 65.4947 89.5165 65.3404 89.4721 65.198L89.0917 63.9787C89.0124 63.7224 89.0379 63.4451 89.1626 63.2076C89.2874 62.9701 89.5011 62.7917 89.7571 62.7115L90.9686 62.3336C90.9967 62.3248 91.0264 62.3217 91.0557 62.3243C91.0851 62.327 91.1137 62.3354 91.1398 62.3491C91.1659 62.3628 91.1891 62.3815 91.208 62.4042C91.2269 62.4268 91.2412 62.453 91.25 62.4811C91.2587 62.5093 91.2619 62.5389 91.2592 62.5683C91.2566 62.5977 91.2481 62.6263 91.2344 62.6524C91.2207 62.6785 91.202 62.7017 91.1794 62.7206C91.1567 62.7395 91.1305 62.7537 91.1024 62.7625L89.8909 63.1404C89.7488 63.1851 89.6301 63.2843 89.5609 63.4162C89.4917 63.5482 89.4776 63.7022 89.5217 63.8445L89.9021 65.0639C89.9817 65.3202 89.9565 65.5978 89.8318 65.8355C89.7071 66.0733 89.4932 66.2519 89.237 66.3321Z" fill="#D5D5D5"/>
<path d="M87.8255 65.5118L85.9258 66.1045L86.5086 67.9728L88.4083 67.3801L87.8255 65.5118Z" fill="#D5D5D5"/>
<path d="M96.5186 62.8254L94.666 63.4033L95.244 65.2559L97.0965 64.6779L96.5186 62.8254Z" fill="#D5D5D5"/>
<path d="M98.3975 59.2433L96.5449 59.8213L97.1229 61.6738L98.9754 61.0959L98.3975 59.2433Z" fill="#D5D5D5"/>
<path d="M95.9403 64.2323L94.0316 64.8278C93.9747 64.8455 93.9131 64.8399 93.8604 64.8123C93.8076 64.7846 93.768 64.7371 93.7503 64.6802C93.7325 64.6233 93.7381 64.5617 93.7658 64.509C93.7934 64.4562 93.8409 64.4166 93.8978 64.3989L95.7212 63.83L97.5636 60.3526C97.5916 60.3007 97.6386 60.2617 97.6948 60.2439L99.6484 59.6344C99.7053 59.6166 99.7669 59.6222 99.8196 59.6499C99.8724 59.6776 99.912 59.7251 99.9297 59.7819C99.9475 59.8388 99.9419 59.9004 99.9142 59.9532C99.8866 60.0059 99.8391 60.0456 99.7822 60.0633L97.9117 60.6468L96.0689 64.1232C96.0419 64.1749 95.9958 64.2141 95.9403 64.2323Z" fill="#D5D5D5"/>
<path d="M104.127 57.6125L102.513 58.1162L102.972 59.5881L104.586 59.0845L104.127 57.6125Z" fill="#D5D5D5"/>
<path d="M103.678 62.5994C103.65 62.6083 103.62 62.6116 103.591 62.609C103.561 62.6064 103.533 62.598 103.506 62.5843C103.48 62.5706 103.457 62.5518 103.438 62.5291C103.419 62.5063 103.405 62.4801 103.396 62.4518C102.775 60.4589 102.939 57.7994 107.257 56.4522C107.314 56.4345 107.376 56.44 107.429 56.4677C107.481 56.4954 107.521 56.5429 107.539 56.5998C107.556 56.6566 107.551 56.7182 107.523 56.771C107.496 56.8238 107.448 56.8634 107.391 56.8811C104.209 57.8738 103.01 59.7031 103.825 62.318C103.834 62.3462 103.837 62.3758 103.835 62.4052C103.832 62.4345 103.824 62.4631 103.81 62.4892C103.796 62.5154 103.777 62.5385 103.755 62.5574C103.732 62.5763 103.706 62.5906 103.678 62.5994Z" fill="#D5D5D5"/>
<path d="M119.686 57.5817C119.644 57.5947 119.622 57.6017 119.62 57.6024C119.59 57.6098 119.56 57.6112 119.53 57.6065C119.5 57.6019 119.471 57.5912 119.446 57.5752C119.42 57.5592 119.398 57.5382 119.381 57.5134C119.363 57.4886 119.351 57.4606 119.345 57.431C119.339 57.4014 119.338 57.3708 119.344 57.3411C119.35 57.3115 119.362 57.2833 119.379 57.2583C119.396 57.2333 119.418 57.2119 119.443 57.1956C119.469 57.1792 119.497 57.1682 119.527 57.1631C119.574 57.1484 120.661 56.8919 120.482 55.3536C120.404 54.8244 120.5 54.2842 120.754 53.8137C121.008 53.3431 121.408 52.9673 121.893 52.7424C121.921 52.7292 121.951 52.7218 121.982 52.7207C122.012 52.7195 122.043 52.7246 122.071 52.7357C122.1 52.7467 122.126 52.7635 122.147 52.785C122.169 52.8064 122.187 52.8321 122.198 52.8605C122.21 52.8888 122.215 52.9192 122.215 52.9498C122.214 52.9804 122.207 53.0106 122.194 53.0384C122.182 53.0663 122.163 53.0912 122.141 53.1117C122.118 53.1323 122.091 53.148 122.062 53.1578C122.007 53.175 120.744 53.723 120.928 55.302C121.129 57.0182 119.979 57.4903 119.686 57.5817Z" fill="#D5D5D5"/>
<path d="M126.402 55.4855C126.109 55.5769 124.896 55.8421 124.083 54.3142C123.332 52.9024 121.945 53.1922 121.931 53.1953C121.902 53.2038 121.871 53.2063 121.84 53.2025C121.81 53.1986 121.78 53.1886 121.754 53.173C121.728 53.1574 121.705 53.1366 121.687 53.1118C121.669 53.087 121.656 53.0587 121.649 53.0288C121.642 52.9989 121.642 52.9679 121.648 52.9378C121.653 52.9076 121.665 52.879 121.682 52.8536C121.7 52.8282 121.722 52.8066 121.748 52.7901C121.773 52.7736 121.802 52.7626 121.833 52.7578C122.36 52.667 122.902 52.7489 123.379 52.9912C123.856 53.2335 124.242 53.6234 124.48 54.1028C125.215 55.4848 126.248 55.0677 126.292 55.0492C126.346 55.0275 126.407 55.028 126.461 55.0506C126.515 55.0732 126.559 55.116 126.582 55.17C126.604 55.224 126.605 55.2848 126.584 55.3395C126.563 55.3942 126.521 55.4383 126.468 55.4625C126.468 55.4625 126.438 55.4743 126.402 55.4855Z" fill="#D5D5D5"/>
<path d="M122.63 51.7013L120.73 52.2939L121.323 54.1937L123.223 53.601L122.63 51.7013Z" fill="#D5D5D5"/>
<path d="M119.536 52.8314L118.254 53.2314L118.654 54.5136L119.936 54.1136L119.536 52.8314Z" fill="#D5D5D5"/>
<path d="M125.027 51.1185L123.745 51.5186L124.145 52.8008L125.427 52.4007L125.027 51.1185Z" fill="#D5D5D5"/>
<path d="M124.732 52.2013L119.287 53.9001C119.23 53.9178 119.168 53.9122 119.115 53.8846C119.063 53.8569 119.023 53.8094 119.005 53.7525C118.988 53.6956 118.993 53.6341 119.021 53.5813C119.049 53.5285 119.096 53.4889 119.153 53.4712L124.598 51.7724C124.655 51.7546 124.717 51.7602 124.77 51.7879C124.822 51.8155 124.862 51.863 124.88 51.9199C124.897 51.9768 124.892 52.0384 124.864 52.0911C124.836 52.1439 124.789 52.1835 124.732 52.2013Z" fill="#D5D5D5"/>
<path d="M132.97 48.4324L131.426 48.9141L131.922 50.505L133.466 50.0234L132.97 48.4324Z" fill="#D5D5D5"/>
<path d="M129.098 49.8681L127.958 50.2236L128.324 51.398L129.464 51.0425L129.098 49.8681Z" fill="#D5D5D5"/>
<path d="M129.352 54.5486L128.418 54.8401C128.361 54.8578 128.299 54.8522 128.246 54.8246C128.194 54.7969 128.154 54.7494 128.136 54.6925C128.119 54.6356 128.124 54.574 128.152 54.5213C128.18 54.4685 128.227 54.4289 128.284 54.4112L129.218 54.1197C129.767 53.9485 129.941 53.2227 130.148 51.5527C130.207 51.062 130.416 50.6016 130.747 50.2348L128.776 50.8499C128.748 50.8587 128.718 50.8619 128.689 50.8592C128.659 50.8565 128.631 50.8481 128.605 50.8344C128.578 50.8207 128.555 50.802 128.536 50.7793C128.517 50.7567 128.503 50.7305 128.494 50.7024C128.486 50.6742 128.482 50.6446 128.485 50.6152C128.488 50.5858 128.496 50.5573 128.51 50.5311C128.524 50.505 128.542 50.4818 128.565 50.4629C128.588 50.444 128.614 50.4298 128.642 50.421L132.147 49.3275C132.227 49.2979 132.308 49.2725 132.391 49.2515C132.447 49.2398 132.505 49.2498 132.554 49.2795C132.602 49.3092 132.638 49.3563 132.653 49.4113C132.668 49.4662 132.662 49.5249 132.636 49.5755C132.609 49.626 132.565 49.6646 132.511 49.6834L132.328 49.7405C131.89 49.8957 130.743 50.41 130.594 51.6071C130.392 53.2582 130.206 54.2821 129.352 54.5486Z" fill="#D5D5D5"/>
<path d="M135.934 49.2531L137.478 48.7715L136.981 47.1805L135.437 47.6622L135.934 49.2531Z" fill="#D5D5D5"/>
<path d="M139.808 47.8165L140.947 47.4609L140.581 46.2865L139.441 46.6421L139.808 47.8165Z" fill="#D5D5D5"/>
<path d="M142.823 50.3454L141.89 50.6365C141.038 50.9023 140.303 50.1668 139.196 48.9241C138.393 48.024 137.156 48.2534 136.707 48.3749L136.524 48.432C136.469 48.4469 136.411 48.4404 136.36 48.4137C136.31 48.387 136.272 48.3422 136.253 48.2883C136.235 48.2344 136.237 48.1754 136.261 48.1234C136.284 48.0714 136.326 48.0301 136.379 48.0081C136.458 47.9785 136.54 47.9531 136.622 47.9321L140.128 46.8385C140.156 46.8297 140.185 46.8266 140.215 46.8292C140.244 46.8319 140.273 46.8403 140.299 46.854C140.325 46.8677 140.348 46.8864 140.367 46.9091C140.386 46.9317 140.4 46.9579 140.409 46.9861C140.418 47.0142 140.421 47.0438 140.418 47.0732C140.416 47.1026 140.407 47.1312 140.393 47.1573C140.38 47.1834 140.361 47.2066 140.338 47.2255C140.316 47.2444 140.29 47.2586 140.261 47.2674L138.29 47.8825C138.771 47.9959 139.205 48.2556 139.532 48.626C140.651 49.8785 141.208 50.38 141.757 50.2087L142.69 49.9176C142.747 49.8999 142.808 49.9054 142.861 49.9331C142.914 49.9608 142.953 50.0083 142.971 50.0652C142.989 50.122 142.983 50.1836 142.956 50.2364C142.928 50.2892 142.88 50.3288 142.824 50.3465L142.823 50.3454Z" fill="#D5D5D5"/>
<path d="M49.5749 9.72005L45.346 11.0394C44.8398 11.1973 44.4171 11.5498 44.1709 12.0194C43.9246 12.4889 43.875 13.0371 44.0329 13.5432L45.1354 17.0773C45.2312 17.384 45.3995 17.663 45.6261 17.8909C45.8526 18.1187 46.1307 18.2886 46.4369 18.3861L47.502 18.7202C48.0694 18.8973 48.5854 19.2093 49.0058 19.6296C49.4261 20.0499 49.7383 20.5659 49.9154 21.1333L63.3906 64.3266L65.0285 63.8156L51.5533 20.6223C51.3764 20.0548 51.3398 19.4529 51.4466 18.8682C51.5534 18.2834 51.8004 17.7333 52.1665 17.265L52.8527 16.3845C53.0491 16.1302 53.1813 15.8323 53.2381 15.5161C53.2949 15.1999 53.2747 14.8746 53.1791 14.5679L52.0766 11.0338C51.9188 10.5281 51.5667 10.1056 51.0976 9.85926C50.6286 9.61292 50.0809 9.56285 49.5749 9.72005Z" fill="#00DFB9"/>
<path d="M152.726 353.01L2.44082 304.578C0.436954 303.933 -1.711 305.034 -2.35678 307.037L-25.9508 380.251C-26.5966 382.255 -25.4957 384.403 -23.4918 385.049L126.793 433.48C128.797 434.126 130.945 433.025 131.591 431.021L155.185 357.808C155.831 355.804 154.73 353.656 152.726 353.01Z" fill="#2A2D32"/>
<path d="M4.09601 316.194C4.4998 314.941 5.31321 314.306 6.30858 314.626C7.30395 314.947 7.58465 315.932 7.18008 317.188L7.07641 317.509C6.6808 318.737 5.88166 319.394 4.87057 319.068C3.85948 318.742 3.59088 317.761 3.99233 316.515L4.09601 316.194ZM4.63649 316.716C4.32195 317.692 4.49203 318.345 5.04837 318.524C5.60471 318.704 6.1216 318.272 6.43613 317.296L6.53708 316.983C6.85162 316.007 6.6827 315.35 6.12878 315.172C5.57486 314.993 5.05197 315.427 4.73744 316.403L4.63649 316.716Z" fill="#92A3B7"/>
<path d="M6.43162 320.3L7.199 319.079L7.84605 319.287L6.89846 320.451L6.43162 320.3Z" fill="#92A3B7"/>
<path d="M8.85285 317.727C9.25664 316.474 10.0689 315.838 11.0642 316.159C12.0596 316.48 12.3403 317.465 11.9357 318.72L11.832 319.042C11.4364 320.27 10.6373 320.927 9.6262 320.601C8.6151 320.275 8.34772 319.294 8.74917 318.049L8.85285 317.727ZM9.39211 318.249C9.07758 319.225 9.24767 319.878 9.80522 320.058C10.3628 320.237 10.8772 319.805 11.1918 318.829L11.2927 318.516C11.6072 317.54 11.4396 316.884 10.8856 316.705C10.3317 316.527 9.8076 316.96 9.49306 317.936L9.39211 318.249Z" fill="#92A3B7"/>
<path d="M12.5032 318.904C12.907 317.651 13.7205 317.016 14.7158 317.336C15.7112 317.657 15.9907 318.642 15.5861 319.897L15.4824 320.219C15.0868 321.446 14.2877 322.103 13.2766 321.778C12.2655 321.452 11.9981 320.471 12.3996 319.225L12.5032 318.904ZM13.0437 319.426C12.7292 320.402 12.8981 321.055 13.4556 321.234C14.0132 321.414 14.5288 320.982 14.8434 320.006L14.9443 319.693C15.2589 318.717 15.0899 318.06 14.536 317.882C13.9821 317.703 13.4592 318.137 13.1447 319.113L13.0437 319.426Z" fill="#92A3B7"/>
<path d="M16.7091 319.716L16.2543 319.569L16.4196 319.056L16.8743 319.203L16.9804 318.874C17.1881 318.229 17.6042 318.052 18.3118 318.28C18.4053 318.309 18.4963 318.345 18.5837 318.389L18.4278 318.873C18.3713 318.845 18.3127 318.822 18.2527 318.803C17.9092 318.693 17.7073 318.752 17.5876 319.123L17.498 319.401L18.1426 319.609L17.9774 320.122L17.3388 319.916L16.4423 322.698L15.8134 322.495L16.7091 319.716Z" fill="#92A3B7"/>
<path d="M138.088 367.866L6.41992 325.435L3.1783 335.493L134.846 377.925L138.088 367.866Z" fill="#383D40"/>
<path d="M4.955 324.956L6.42084 325.429L3.17922 335.488L1.71338 335.015C1.04362 334.799 0.487034 334.326 0.166066 333.7C-0.154901 333.074 -0.21396 332.346 0.00187715 331.676L1.61587 326.668C1.83171 325.998 2.30476 325.442 2.93097 325.121C3.55718 324.8 4.28524 324.741 4.955 324.956Z" fill="#2296FF"/>
<path d="M135.648 378.188L134.182 377.716L137.423 367.657L138.889 368.129C139.559 368.345 140.116 368.818 140.436 369.444C140.757 370.071 140.816 370.799 140.601 371.468L138.987 376.477C138.771 377.146 138.298 377.703 137.672 378.024C137.045 378.345 136.317 378.404 135.648 378.188Z" fill="#2296FF"/>
<path d="M9.12936 321.17L7.91992 320.78L6.42013 325.434L7.62957 325.824L9.12936 321.17Z" fill="#92A3B7"/>
<path d="M48.013 330.347C48.4168 329.094 49.229 328.459 50.2244 328.779C51.2197 329.1 51.5004 330.085 51.0959 331.34L50.9922 331.662C50.5966 332.89 49.7974 333.547 48.7864 333.221C47.7753 332.895 47.5079 331.914 47.9093 330.669L48.013 330.347ZM48.5523 330.869C48.2377 331.845 48.4078 332.498 48.9642 332.677C49.5205 332.857 50.0374 332.425 50.3519 331.449L50.4529 331.136C50.7674 330.16 50.5985 329.503 50.0446 329.325C49.4907 329.146 48.9678 329.58 48.6532 330.556L48.5523 330.869Z" fill="#92A3B7"/>
<path d="M54.9648 330.404L54.0399 333.274L54.5877 333.45L54.4112 333.998L53.8633 333.821L53.5877 334.677L52.977 334.48L53.2525 333.625L51.1808 332.957L51.3554 332.415C52.1866 331.63 53.121 330.839 54.042 330.106L54.9648 330.404ZM53.4291 333.077L54.1837 330.735L54.1692 330.731C53.4431 331.298 52.6561 331.971 51.9761 332.602L53.4291 333.077Z" fill="#92A3B7"/>
<path d="M55.9003 332.345L55.4467 332.199L55.612 331.686L56.0655 331.832L56.1715 331.503C56.3793 330.859 56.7954 330.682 57.5029 330.91C57.5965 330.938 57.6875 330.975 57.7749 331.019L57.619 331.503C57.5629 331.475 57.5047 331.452 57.4451 331.433C57.1004 331.322 56.8985 331.381 56.7788 331.753L56.6892 332.031L57.3338 332.238L57.1685 332.751L56.5299 332.545L55.6335 335.327L55.0046 335.125L55.9003 332.345Z" fill="#92A3B7"/>
<path d="M53.0454 335.322L51.8359 334.933L50.3361 339.587L51.5456 339.976L53.0454 335.322Z" fill="#92A3B7"/>
<path d="M92.0902 344.551C92.4939 343.298 93.3073 342.663 94.3027 342.984C95.2981 343.305 95.5776 344.289 95.173 345.545L95.0693 345.866C94.6737 347.094 93.8746 347.751 92.8635 347.425C91.8524 347.099 91.585 346.119 91.9865 344.873L92.0902 344.551ZM92.6306 345.074C92.3161 346.05 92.4849 346.702 93.0425 346.882C93.6 347.062 94.1157 346.63 94.4303 345.654L94.5312 345.34C94.8458 344.364 94.6768 343.708 94.1229 343.529C93.569 343.351 93.0461 343.784 92.7316 344.76L92.6306 345.074Z" fill="#92A3B7"/>
<path d="M95.3983 346.86C95.4773 346.605 95.643 346.385 95.8667 346.24C96.0904 346.094 96.358 346.031 96.6232 346.062L96.6271 346.05C96.441 345.922 96.3018 345.737 96.2304 345.523C96.1591 345.308 96.1594 345.077 96.2314 344.863C96.4442 344.202 97.1719 343.908 97.9858 344.17C98.7998 344.433 99.2196 345.102 99.0083 345.758C98.9408 345.973 98.8052 346.161 98.6218 346.293C98.4384 346.425 98.2172 346.494 97.9913 346.49L97.9874 346.502C98.2185 346.632 98.397 346.839 98.4923 347.087C98.5876 347.335 98.5938 347.608 98.5097 347.86C98.2708 348.601 97.4573 348.909 96.5394 348.613C95.6214 348.317 95.1582 347.605 95.3983 346.86ZM97.8877 347.627C98.0378 347.162 97.7452 346.715 97.2203 346.546C96.6954 346.377 96.1934 346.567 96.0433 347.033C95.8933 347.499 96.1935 347.942 96.716 348.111C97.2385 348.279 97.7385 348.09 97.8877 347.627ZM98.3683 345.61C98.4985 345.206 98.2644 344.826 97.8206 344.683C97.3767 344.54 96.9649 344.712 96.8347 345.116C96.7045 345.52 96.9363 345.915 97.3778 346.057C97.8192 346.199 98.2361 346.02 98.3683 345.61Z" fill="#92A3B7"/>
<path d="M100.015 346.562L99.5619 346.416L99.7272 345.903L100.181 346.049L100.287 345.72C100.495 345.076 100.911 344.899 101.618 345.127C101.712 345.155 101.803 345.192 101.89 345.236L101.734 345.719C101.678 345.692 101.62 345.669 101.56 345.65C101.216 345.539 101.014 345.598 100.894 345.969L100.804 346.248L101.449 346.455L101.284 346.968L100.645 346.762L99.7487 349.544L99.1198 349.341L100.015 346.562Z" fill="#92A3B7"/>
<path d="M97.1225 349.526L95.9131 349.137L94.4133 353.791L95.6227 354.18L97.1225 349.526Z" fill="#92A3B7"/>
<path d="M135.391 361.038L136.56 357.409L136.544 357.404C136.327 357.445 135.642 357.618 135.343 357.709L135.546 357.08C135.959 356.955 136.378 356.851 136.801 356.769L137.406 356.964L136.029 361.237L135.391 361.038Z" fill="#92A3B7"/>
<path d="M137.933 358.479L137.942 358.45C138.151 357.803 138.821 357.331 139.735 357.626C140.565 357.893 140.94 358.573 140.723 359.246C140.546 359.793 140.088 360.037 139.554 360.362L138.057 361.278L138.053 361.292L139.959 361.906L139.783 362.454L136.985 361.552L137.115 361.148L139.278 359.861C139.594 359.676 139.939 359.467 140.061 359.088C140.196 358.669 139.97 358.296 139.552 358.161C139.456 358.124 139.353 358.108 139.25 358.113C139.148 358.118 139.047 358.144 138.954 358.189C138.862 358.234 138.78 358.298 138.713 358.376C138.646 358.454 138.596 358.546 138.566 358.644C138.564 358.651 138.558 358.669 138.557 358.673L137.933 358.479Z" fill="#92A3B7"/>
<path d="M141.681 359.99L141.227 359.844L141.392 359.331L141.846 359.477L141.952 359.148C142.16 358.503 142.576 358.326 143.283 358.554C143.377 358.583 143.468 358.619 143.555 358.663L143.399 359.147C143.343 359.12 143.285 359.097 143.225 359.078C142.881 358.967 142.679 359.026 142.559 359.397L142.469 359.675L143.114 359.883L142.949 360.396L142.31 360.19L141.414 362.972L140.785 362.769L141.681 359.99Z" fill="#92A3B7"/>
<path d="M140.107 363.379L138.897 362.989L137.398 367.643L138.607 368.033L140.107 363.379Z" fill="#92A3B7"/>
<path d="M59.0561 353.501L46.207 349.36L45.1266 352.713L57.9757 356.854L59.0561 353.501Z" fill="#31FFB0"/>
<path d="M134.846 377.925L78.3232 359.71L77.2428 363.063L133.766 381.278L134.846 377.925Z" fill="#31FFB0"/>
<path d="M133.766 381.277L2.09766 338.845L-1.14398 348.904L130.524 391.336L133.766 381.277Z" fill="#FB6EFF"/>
<path opacity="0.5" d="M126.439 403.716L-5.1416 361.312L-8.38323 371.371L123.198 413.775L126.439 403.716Z" fill="#9164FF"/>
<path d="M71.214 385.919L-5.1416 361.312L-8.38323 371.371L67.9723 395.978L71.214 385.919Z" fill="#9164FF"/>
<path d="M29.2248 369.579L26.4673 368.69C26.2318 368.614 26.0362 368.448 25.9233 368.228C25.8105 368.008 25.7897 367.752 25.8656 367.516C25.9131 367.369 25.9964 367.236 26.108 367.129C26.2197 367.022 26.3562 366.944 26.5052 366.903L28.7678 366.274C28.9217 366.221 29.0612 366.133 29.1751 366.016C29.2891 365.9 29.3744 365.759 29.4244 365.604C29.4743 365.449 29.4875 365.284 29.4629 365.124C29.4383 364.963 29.3766 364.809 29.2827 364.676L27.8109 362.843C27.7139 362.723 27.6483 362.58 27.6202 362.428C27.592 362.276 27.602 362.12 27.6495 361.973C27.7253 361.737 27.8916 361.542 28.1118 361.429C28.3319 361.316 28.5878 361.295 28.8233 361.371L31.5808 362.26L29.2248 369.579Z" fill="#AEB6BC"/>
<path d="M31.5508 362.25L34.3071 363.138C34.5425 363.214 34.7382 363.38 34.851 363.601C34.9638 363.821 34.9846 364.077 34.9087 364.312C34.8614 364.459 34.7784 364.592 34.667 364.699C34.5556 364.806 34.4194 364.884 34.2707 364.925L32.0041 365.553C31.8502 365.607 31.7107 365.695 31.5968 365.811C31.4828 365.927 31.3975 366.069 31.3476 366.224C31.2976 366.379 31.2844 366.543 31.309 366.704C31.3336 366.865 31.3953 367.018 31.4893 367.151L32.9627 368.984C33.0592 369.104 33.1244 369.247 33.1522 369.399C33.1801 369.551 33.1699 369.708 33.1225 369.855C33.0466 370.09 32.8803 370.286 32.6602 370.399C32.44 370.512 32.1841 370.532 31.9487 370.457L29.1923 369.568L31.5508 362.25Z" fill="#777E81"/>
<path d="M29.6378 390.917L31.6788 394.899C31.7599 395.057 31.8778 395.194 32.0225 395.297C32.1672 395.4 32.3346 395.467 32.5105 395.492C32.4372 395.481 32.3651 395.463 32.2954 395.438L34.9177 387.301C34.6457 387.222 34.3537 387.25 34.1019 387.38L30.1203 389.42C29.9902 389.487 29.8746 389.578 29.78 389.689C29.6853 389.801 29.6135 389.93 29.5687 390.069C29.5239 390.208 29.507 390.354 29.5188 390.5C29.5306 390.645 29.5711 390.787 29.6378 390.917Z" fill="#AEB6BC"/>
<path d="M32.3004 395.439C32.4432 395.491 32.5951 395.512 32.7466 395.503C32.8981 395.493 33.046 395.452 33.1811 395.383L37.1631 393.342C37.2931 393.275 37.4088 393.184 37.5034 393.072C37.598 392.961 37.6698 392.832 37.7146 392.693C37.7594 392.554 37.7764 392.408 37.7646 392.262C37.7527 392.116 37.7123 391.975 37.6456 391.845L35.6042 387.864C35.5351 387.728 35.4389 387.609 35.3217 387.512C35.2045 387.416 35.0687 387.344 34.9227 387.302L32.3004 395.439Z" fill="#777E81"/>
<path d="M95.6839 387.754L97.7241 391.734C97.8054 391.892 97.9233 392.029 98.0682 392.132C98.213 392.235 98.3805 392.303 98.5566 392.328C98.4835 392.316 98.4115 392.299 98.3415 392.275L100.964 384.138C100.692 384.058 100.4 384.086 100.147 384.215L96.1657 386.259C95.904 386.394 95.7065 386.627 95.6162 386.907C95.5259 387.187 95.5503 387.491 95.6839 387.754Z" fill="#AEB6BC"/>
<path d="M98.3414 392.273C98.4844 392.325 98.6364 392.346 98.7879 392.336C98.9395 392.326 99.0874 392.285 99.2225 392.216L103.203 390.175C103.333 390.109 103.449 390.017 103.543 389.906C103.638 389.794 103.71 389.665 103.755 389.526C103.8 389.387 103.817 389.24 103.805 389.095C103.793 388.949 103.752 388.807 103.686 388.677L101.646 384.697C101.576 384.561 101.48 384.442 101.363 384.346C101.246 384.249 101.11 384.178 100.964 384.136L98.3414 392.273Z" fill="#777E81"/>
<path d="M98.2821 392.918L98.2144 392.896L98.1322 392.87L97.5486 392.663L97.5837 392.554C97.4087 392.405 97.2651 392.223 97.1612 392.018L95.1214 388.036C95.0167 387.832 94.9532 387.609 94.9346 387.38C94.916 387.151 94.9427 386.921 95.0131 386.703C95.0835 386.484 95.1962 386.282 95.3449 386.107C95.4936 385.932 95.6752 385.788 95.8795 385.684L99.8603 383.642C100.256 383.44 100.715 383.397 101.142 383.521L101.195 383.538C101.635 383.681 102 383.991 102.214 384.401L104.254 388.382C104.358 388.586 104.422 388.809 104.44 389.038C104.459 389.267 104.432 389.497 104.362 389.716C104.292 389.934 104.179 390.136 104.03 390.311C103.881 390.486 103.7 390.63 103.496 390.735L99.5148 392.776C99.2438 392.915 98.9409 392.981 98.6366 392.966L98.6331 392.977L98.4504 392.947L98.281 392.922L98.2821 392.918ZM100.782 384.746C100.667 384.711 100.542 384.723 100.435 384.779L96.4547 386.819C96.3988 386.848 96.3492 386.887 96.3086 386.935C96.2679 386.983 96.2371 387.038 96.2179 387.098C96.1987 387.157 96.1914 387.22 96.1965 387.283C96.2016 387.345 96.219 387.406 96.2477 387.462L98.2875 391.443C98.3436 391.551 98.4384 391.633 98.5526 391.673L98.607 391.69L98.6457 391.703L98.6747 391.712C98.7622 391.718 98.8497 391.7 98.9278 391.66L102.909 389.619C102.964 389.59 103.014 389.551 103.055 389.503C103.095 389.456 103.126 389.4 103.145 389.341C103.165 389.281 103.172 389.218 103.167 389.156C103.162 389.093 103.144 389.032 103.116 388.977L101.076 384.995C101.018 384.883 100.917 384.798 100.796 384.76L100.782 384.746Z" fill="#1166CC"/>
<path d="M104.421 388.301L102.381 384.32C102.145 383.864 101.74 383.519 101.252 383.36L101.192 383.341C100.718 383.203 100.21 383.252 99.7714 383.477L95.7906 385.519C95.3332 385.753 94.9877 386.16 94.83 386.65C94.6723 387.139 94.7153 387.671 94.9495 388.129L96.9909 392.109C97.0865 392.297 97.212 392.467 97.3624 392.614C97.5538 392.83 97.7978 392.993 98.0708 393.088C98.3042 393.144 98.5441 393.168 98.784 393.161C99.0678 393.152 99.3459 393.08 99.5984 392.95L103.579 390.91C104.036 390.675 104.382 390.268 104.54 389.779C104.698 389.289 104.654 388.757 104.42 388.3L104.421 388.301ZM103.406 390.571L99.4255 392.612C99.1372 392.76 98.8099 392.814 98.4895 392.766L98.4508 392.753C98.4102 392.747 98.3775 392.741 98.3441 392.732C98.1529 392.687 97.9698 392.613 97.801 392.512C97.6026 392.357 97.4423 392.159 97.3323 391.932L95.2925 387.951C95.1043 387.583 95.0698 387.156 95.1964 386.763C95.3231 386.37 95.6006 386.043 95.968 385.855L99.9487 383.813C100.301 383.632 100.71 383.593 101.091 383.705L101.139 383.72C101.531 383.848 101.857 384.124 102.046 384.49L104.085 388.472C104.179 388.654 104.235 388.853 104.252 389.056C104.268 389.26 104.245 389.465 104.182 389.66C104.119 389.855 104.019 390.035 103.886 390.191C103.754 390.347 103.592 390.475 103.41 390.568L103.406 390.571Z" fill="#3E8DFF"/>
<path d="M109.931 358.792L108.462 358.318L90.4262 414.284L91.8957 414.758L109.931 358.792Z" fill="#57A3FF"/>
<path d="M114.942 349.422L109.863 347.785C109.51 347.671 109.126 347.703 108.796 347.872C108.466 348.041 108.217 348.334 108.103 348.687L106.769 352.828C106.673 353.125 106.68 353.445 106.787 353.738L108.46 358.318L108.752 358.412L110.191 353.947L109.391 353.689L109.7 352.73L112.187 353.531L111.878 354.49L111.078 354.233L109.641 358.693L109.932 358.787L113.966 356.046C114.224 355.87 114.415 355.614 114.511 355.318L115.845 351.178C115.958 350.825 115.926 350.442 115.757 350.113C115.587 349.784 115.294 349.536 114.942 349.422Z" fill="#57A3FF"/>
<path opacity="0.8" d="M225.336 175.796C224.808 175.499 224.185 175.424 223.602 175.587C223.019 175.75 222.525 176.138 222.229 176.666L221.277 178.357C221.13 178.618 221.036 178.905 221 179.202C220.965 179.499 220.988 179.8 221.068 180.089L224.982 194.068C225.145 194.651 225.07 195.274 224.774 195.802C224.477 196.329 223.983 196.717 223.4 196.88L209.422 200.791C208.991 200.916 208.605 201.165 208.314 201.507C208.024 201.849 207.84 202.27 207.787 202.716C207.734 203.162 207.813 203.614 208.015 204.015C208.218 204.416 208.534 204.749 208.924 204.971L221.269 211.915L237.688 182.727L225.336 175.796Z" fill="white"/>
<path opacity="0.4" d="M236.717 217.998C237.013 217.47 237.088 216.846 236.925 216.262L233.012 202.287C232.848 201.704 232.924 201.081 233.22 200.553C233.517 200.026 234.011 199.638 234.593 199.475L248.57 195.559C249.153 195.397 249.647 195.01 249.944 194.483L250.896 192.792C251.192 192.264 251.266 191.641 251.103 191.058C250.94 190.476 250.553 189.982 250.026 189.685L237.681 182.74L221.261 211.929L233.607 218.873C233.868 219.02 234.156 219.114 234.454 219.149C234.752 219.184 235.054 219.161 235.343 219.08C235.632 218.998 235.902 218.861 236.137 218.675C236.373 218.49 236.57 218.26 236.717 217.998Z" fill="white"/>
<path d="M233.022 219.91L208.332 206.021C207.733 205.684 207.247 205.177 206.935 204.564C206.624 203.95 206.502 203.259 206.584 202.576C206.666 201.893 206.948 201.25 207.396 200.728C207.843 200.205 208.435 199.827 209.097 199.642L223.077 195.728C223.353 195.649 223.588 195.465 223.729 195.214C223.869 194.964 223.905 194.668 223.829 194.391L219.915 180.411C219.791 179.972 219.756 179.512 219.811 179.059C219.866 178.606 220.009 178.168 220.234 177.77L221.185 176.079C221.638 175.276 222.391 174.685 223.279 174.437C224.167 174.188 225.117 174.302 225.921 174.753L250.612 188.642C251.414 189.095 252.004 189.848 252.253 190.736C252.501 191.624 252.388 192.574 251.937 193.378L250.986 195.069C250.763 195.468 250.463 195.818 250.104 196.1C249.744 196.382 249.333 196.59 248.892 196.712L234.915 200.627C234.778 200.665 234.65 200.73 234.537 200.818C234.425 200.906 234.332 201.015 234.262 201.139C234.192 201.264 234.147 201.4 234.13 201.542C234.113 201.683 234.125 201.827 234.163 201.964L238.076 215.94C238.262 216.602 238.248 217.305 238.034 217.959C237.821 218.613 237.418 219.189 236.877 219.614C236.336 220.039 235.681 220.294 234.995 220.347C234.308 220.4 233.622 220.248 233.022 219.91ZM224.751 176.833C224.5 176.692 224.204 176.656 223.927 176.734C223.649 176.811 223.414 176.996 223.273 177.247L222.322 178.938C222.252 179.062 222.207 179.198 222.19 179.34C222.173 179.481 222.184 179.624 222.223 179.761L226.137 193.74C226.384 194.628 226.269 195.578 225.817 196.382C225.365 197.186 224.613 197.777 223.725 198.027L209.747 201.939C209.54 201.996 209.355 202.114 209.215 202.277C209.075 202.44 208.986 202.641 208.961 202.855C208.935 203.068 208.973 203.285 209.071 203.476C209.168 203.668 209.32 203.826 209.508 203.931L234.198 217.82C234.385 217.925 234.6 217.972 234.814 217.956C235.028 217.939 235.232 217.859 235.401 217.726C235.569 217.594 235.695 217.414 235.761 217.21C235.828 217.005 235.832 216.786 235.774 216.58L231.862 202.604C231.613 201.716 231.728 200.765 232.18 199.962C232.632 199.158 233.385 198.566 234.273 198.317L248.25 194.402C248.388 194.364 248.516 194.3 248.629 194.213C248.741 194.125 248.835 194.016 248.904 193.891L249.855 192.2C249.996 191.949 250.031 191.652 249.954 191.375C249.876 191.098 249.692 190.863 249.442 190.722L224.751 176.833Z" fill="white"/>
<path opacity="0.4" d="M14.7093 140.562C14.1811 140.798 13.7046 141.136 13.3072 141.556C12.9098 141.976 12.5993 142.471 12.3935 143.011L4.48129 163.745C4.27432 164.285 4.17591 164.861 4.19183 165.44C4.20774 166.018 4.33765 166.588 4.57402 167.116C4.8104 167.644 5.14858 168.12 5.56932 168.517C5.99005 168.914 6.48506 169.225 7.02589 169.43L27.7596 177.342C28.2997 177.551 28.8758 177.65 29.4544 177.634C30.0331 177.619 30.6028 177.488 31.1308 177.251L14.7093 140.562Z" fill="white"/>
<path opacity="0.8" d="M31.1334 177.255C31.6621 177.019 32.1389 176.681 32.536 176.26C32.9332 175.839 33.2429 175.343 33.4473 174.802L41.3595 154.068C41.5664 153.528 41.6649 152.952 41.6489 152.374C41.633 151.795 41.5031 151.226 41.2667 150.698C41.0304 150.169 40.6922 149.693 40.2714 149.296C39.8507 148.899 39.3557 148.589 38.8149 148.383L18.0811 140.471C17.5409 140.264 16.9652 140.166 16.387 140.183C15.8088 140.199 15.2396 140.329 14.7119 140.566L31.1334 177.255Z" fill="white"/>
<path d="M31.6478 178.406C30.6957 178.834 29.6683 179.07 28.6247 179.099C27.5811 179.128 26.5421 178.951 25.5673 178.577L7.84271 171.81C5.87478 171.056 4.28611 169.553 3.42522 167.63C2.56433 165.706 2.50152 163.52 3.25061 161.55L10.0137 143.828C10.3857 142.852 10.9463 141.96 11.6633 141.201C12.3802 140.443 13.2396 139.833 14.1923 139.407C15.145 138.98 16.1724 138.746 17.2158 138.716C18.2592 138.687 19.2982 138.863 20.2733 139.236L37.9958 145.999C39.9638 146.752 41.5525 148.256 42.4134 150.179C43.2743 152.102 43.337 154.289 42.5879 156.258L35.8269 173.985C35.4564 174.961 34.8963 175.854 34.1791 176.613C33.4618 177.372 32.6015 177.981 31.6478 178.406ZM15.7707 142.933C15.2789 143.151 14.8352 143.463 14.4649 143.853C14.0947 144.243 13.8054 144.703 13.6137 145.205L6.8482 162.934C6.65603 163.437 6.5649 163.972 6.57988 164.51C6.59485 165.048 6.71572 165.578 6.93556 166.069C7.1554 166.56 7.46989 167.003 7.86107 167.373C8.25225 167.742 8.71239 168.031 9.21527 168.223L26.9442 174.988C27.4467 175.182 27.9826 175.275 28.5211 175.261C29.0596 175.247 29.59 175.126 30.0816 174.906C30.5733 174.686 31.0165 174.371 31.3857 173.979C31.7549 173.587 32.0428 173.125 32.2327 172.621L38.9982 154.892C39.1904 154.389 39.2816 153.854 39.2667 153.316C39.2517 152.778 39.1308 152.248 38.911 151.757C38.6911 151.266 38.3767 150.823 37.9855 150.453C37.5943 150.084 37.134 149.795 36.6312 149.604L18.9022 142.838C18.3998 142.646 17.8645 142.556 17.327 142.572C16.7896 142.589 16.2606 142.711 15.7707 142.933Z" fill="white"/>
<path d="M218.593 305.177L194.203 312.718C192.379 313.281 191.358 315.216 191.922 317.04L199.462 341.429C200.026 343.253 201.961 344.274 203.784 343.71L228.174 336.17C229.997 335.606 231.019 333.671 230.455 331.848L222.915 307.458C222.351 305.635 220.416 304.614 218.593 305.177Z" fill="#1C1E21"/>
<path d="M228.348 336.742L203.96 344.282C202.931 344.596 201.819 344.49 200.867 343.986C199.916 343.482 199.204 342.621 198.886 341.593L191.35 317.217C191.036 316.19 191.141 315.08 191.643 314.13C192.144 313.18 193 312.467 194.025 312.146L218.413 304.607C219.44 304.293 220.549 304.399 221.499 304.9C222.449 305.401 223.162 306.257 223.483 307.282L231.023 331.672C231.337 332.699 231.232 333.809 230.73 334.759C230.229 335.709 229.373 336.422 228.348 336.742ZM194.379 313.29C193.657 313.517 193.054 314.019 192.701 314.689C192.348 315.358 192.273 316.139 192.493 316.863L200.033 341.253C200.257 341.978 200.76 342.585 201.43 342.941C202.101 343.297 202.885 343.373 203.611 343.153L227.999 335.613C228.723 335.385 229.327 334.88 229.68 334.208C230.032 333.535 230.104 332.751 229.88 332.026L222.34 307.636C222.113 306.914 221.61 306.311 220.941 305.958C220.272 305.605 219.49 305.53 218.766 305.75L194.379 313.29Z" fill="#36393F"/>
<path d="M221.589 324.49L202.943 316.914C202.768 316.846 202.575 316.85 202.403 316.923C202.231 316.996 202.094 317.134 202.022 317.306C201.96 317.456 201.953 317.623 202 317.779L208.274 338.071C208.32 338.216 208.411 338.341 208.533 338.431C208.655 338.521 208.803 338.569 208.954 338.57C209.024 338.569 209.093 338.559 209.16 338.539C209.271 338.504 209.372 338.442 209.453 338.359C209.535 338.276 209.595 338.175 209.629 338.063L212.425 328.635L221.531 325.82C221.666 325.772 221.784 325.685 221.869 325.57C221.954 325.455 222.003 325.317 222.009 325.174C222.015 325.031 221.978 324.889 221.903 324.767C221.828 324.646 221.719 324.549 221.589 324.49Z" fill="#00D3FF"/>
<path d="M247.556 40.2379L218.002 28.6668C215.793 27.8018 213.301 28.8916 212.436 31.101L200.865 60.655C200 62.8644 201.089 65.3566 203.299 66.2216L232.853 77.7927C235.062 78.6577 237.554 77.5679 238.419 75.3586L249.991 45.8045C250.856 43.5952 249.766 41.1029 247.556 40.2379Z" fill="#1C1E21"/>
<path d="M232.578 78.4841L203.027 66.9141C201.783 66.4218 200.784 65.4563 200.25 64.2292C199.716 63.0021 199.69 61.6133 200.178 60.3671L211.743 30.8297C212.234 29.5881 213.196 28.5911 214.419 28.0562C215.643 27.5212 217.028 27.4917 218.273 27.9741L247.824 39.5441C249.066 40.0353 250.063 40.9975 250.598 42.2208C251.133 43.4442 251.162 44.8295 250.68 46.0745L239.109 75.6286C238.618 76.8701 237.655 77.8671 236.432 78.4021C235.209 78.937 233.823 78.9665 232.578 78.4841ZM217.731 29.3593C216.853 29.0207 215.877 29.0422 215.015 29.4191C214.153 29.796 213.475 30.4978 213.128 31.372L201.557 60.9261C201.213 61.8049 201.231 62.7842 201.607 63.6498C201.982 64.5155 202.686 65.1971 203.563 65.5456L233.114 77.1156C233.995 77.4552 234.974 77.4324 235.838 77.0522C236.702 76.6719 237.38 75.965 237.724 75.0862L249.295 45.5322C249.633 44.6545 249.612 43.6787 249.235 42.8168C248.858 41.9549 248.156 41.2766 247.282 40.9293L217.731 29.3593Z" fill="#36393F"/>
<path fill-rule="evenodd" clip-rule="evenodd" d="M210.729 60.9167L220.096 61.1878C221.545 61.2276 222.983 60.9178 224.288 60.2846C225.592 59.6514 226.725 58.7135 227.591 57.5501L228.922 55.7807C229.361 55.1925 229.633 54.497 229.71 53.7673C229.786 53.0376 229.664 52.3008 229.357 51.6344L227.213 46.9607C226.869 46.2163 226.31 45.5924 225.608 45.1703C224.905 44.7481 224.091 44.5474 223.273 44.594L220.984 44.7296C219.769 44.7999 218.581 45.1149 217.491 45.6554C216.401 46.196 215.431 46.9511 214.64 47.8755L208.254 55.3404C208.156 55.4566 208.101 55.6023 208.097 55.754C208.092 55.9056 208.139 56.0542 208.23 56.1757C208.321 56.2971 208.45 56.3843 208.597 56.423C208.744 56.4617 208.899 56.4496 209.038 56.3888L218.672 52.1094C219.103 51.9179 219.591 51.9042 220.031 52.0712C220.472 52.2382 220.828 52.5724 221.023 53.001C221.121 53.2159 221.175 53.4479 221.183 53.6838C221.19 53.9197 221.151 54.1548 221.067 54.3753C220.983 54.5959 220.856 54.7976 220.693 54.9688C220.531 55.1401 220.336 55.2773 220.12 55.3728L210.465 59.6313C210.326 59.6941 210.212 59.8023 210.143 59.9383C210.073 60.0743 210.052 60.2299 210.083 60.3795C210.113 60.5291 210.194 60.6638 210.312 60.7615C210.429 60.8591 210.576 60.9139 210.729 60.9167Z" fill="#D6D6D6"/>
<path d="M228.4 43.8539L232.322 52.5614C232.567 53.1068 233.209 53.3497 233.754 53.1041L237.755 51.3018C238.3 51.0562 238.543 50.415 238.298 49.8697L234.376 41.1621C234.13 40.6168 233.489 40.3739 232.943 40.6195L228.942 42.4217C228.397 42.6674 228.154 43.3086 228.4 43.8539Z" fill="#D6D6D6"/>
<path d="M234.773 67.6128L229.534 69.9036C229.41 69.957 229.304 70.0464 229.231 70.1601C229.157 70.2739 229.119 70.407 229.122 70.5424C229.125 70.6778 229.167 70.8094 229.245 70.9203C229.323 71.0313 229.432 71.1166 229.558 71.1653L233.323 72.6394C233.492 72.7055 233.68 72.7018 233.847 72.6291C234.013 72.5564 234.143 72.4206 234.21 72.2516L235.684 68.4867C235.734 68.3609 235.745 68.223 235.716 68.0906C235.688 67.9583 235.62 67.8375 235.522 67.7437C235.425 67.6499 235.301 67.5874 235.168 67.564C235.034 67.5407 234.897 67.5577 234.773 67.6128Z" fill="#D6D6D6"/>
</g>
</g>
<rect x="245.372" y="5.2271" width="404.545" height="240.909" rx="13.6364" transform="rotate(90 245.372 5.2271)" fill="#00007C" fill-opacity="0.6"/>
<rect x="245.372" y="5.2271" width="404.545" height="240.909" rx="13.6364" transform="rotate(90 245.372 5.2271)" stroke="#D2D2FF" stroke-width="9.09091"/>
<rect x="245.372" y="5.2271" width="404.545" height="240.909" rx="13.6364" transform="rotate(90 245.372 5.2271)" stroke="url(#paint0_linear_117_7699)" stroke-opacity="0.6" stroke-width="9.09091"/>
<path d="M54.2264 260.434H58.9459V276.137H55.8883V265.515C55.8883 265.21 55.8919 264.784 55.899 264.237C55.9061 263.683 55.9097 263.257 55.9097 262.958L52.9374 276.137H49.752L46.801 262.958C46.801 263.257 46.8045 263.683 46.8116 264.237C46.8187 264.784 46.8223 265.21 46.8223 265.515V276.137H43.7648V260.434H48.5375L51.3926 272.781L54.2264 260.434ZM66.5209 273.995C67.4087 273.995 68.0905 273.679 68.5663 273.047C69.0422 272.415 69.2801 271.517 69.2801 270.352C69.2801 269.187 69.0422 268.292 68.5663 267.667C68.0905 267.035 67.4087 266.719 66.5209 266.719C65.6331 266.719 64.9477 267.035 64.4648 267.667C63.9889 268.292 63.751 269.187 63.751 270.352C63.751 271.517 63.9889 272.415 64.4648 273.047C64.9477 273.679 65.6331 273.995 66.5209 273.995ZM72.4655 270.352C72.4655 272.056 71.9754 273.516 70.9953 274.73C70.0152 275.938 68.5273 276.542 66.5315 276.542C64.5358 276.542 63.0479 275.938 62.0678 274.73C61.0876 273.516 60.5976 272.056 60.5976 270.352C60.5976 268.676 61.0876 267.223 62.0678 265.995C63.0479 264.766 64.5358 264.152 66.5315 264.152C68.5273 264.152 70.0152 264.766 70.9953 265.995C71.9754 267.223 72.4655 268.676 72.4655 270.352ZM73.0199 266.794V264.631H74.6392V261.392H77.6435V264.631H79.5291V266.794H77.6435V272.93C77.6435 273.406 77.7038 273.704 77.8246 273.825C77.9453 273.939 78.3146 273.995 78.9325 273.995C79.0249 273.995 79.1207 273.995 79.2202 273.995C79.3267 273.988 79.4297 273.981 79.5291 273.974V276.243L78.0909 276.297C76.6562 276.346 75.6761 276.098 75.1506 275.551C74.8097 275.203 74.6392 274.667 74.6392 273.942V266.794H73.0199ZM84.1638 263.14H81.0849V260.338H84.1638V263.14ZM81.0849 264.525H84.1638V276.137H81.0849V264.525ZM91.8879 273.995C92.7757 273.995 93.4575 273.679 93.9334 273.047C94.4092 272.415 94.6472 271.517 94.6472 270.352C94.6472 269.187 94.4092 268.292 93.9334 267.667C93.4575 267.035 92.7757 266.719 91.8879 266.719C91.0001 266.719 90.3148 267.035 89.8318 267.667C89.356 268.292 89.118 269.187 89.118 270.352C89.118 271.517 89.356 272.415 89.8318 273.047C90.3148 273.679 91.0001 273.995 91.8879 273.995ZM97.8325 270.352C97.8325 272.056 97.3425 273.516 96.3624 274.73C95.3822 275.938 93.8943 276.542 91.8986 276.542C89.9028 276.542 88.4149 275.938 87.4348 274.73C86.4547 273.516 85.9646 272.056 85.9646 270.352C85.9646 268.676 86.4547 267.223 87.4348 265.995C88.4149 264.766 89.9028 264.152 91.8986 264.152C93.8943 264.152 95.3822 264.766 96.3624 265.995C97.3425 267.223 97.8325 268.676 97.8325 270.352ZM106.015 264.248C107.215 264.248 108.195 264.564 108.955 265.196C109.722 265.821 110.106 266.861 110.106 268.317V276.137H106.995V269.074C106.995 268.463 106.913 267.994 106.75 267.667C106.452 267.071 105.883 266.772 105.045 266.772C104.015 266.772 103.309 267.209 102.925 268.083C102.726 268.544 102.627 269.134 102.627 269.851V276.137H99.6014V264.546H102.531V266.24C102.922 265.643 103.291 265.213 103.639 264.951C104.264 264.482 105.056 264.248 106.015 264.248ZM128.92 265.334C128.672 264.262 128.065 263.512 127.099 263.086C126.559 262.852 125.959 262.735 125.298 262.735C124.034 262.735 122.994 263.214 122.177 264.173C121.367 265.125 120.962 266.559 120.962 268.477C120.962 270.409 121.403 271.776 122.283 272.578C123.164 273.381 124.165 273.782 125.288 273.782C126.388 273.782 127.29 273.466 127.994 272.834C128.697 272.195 129.13 271.36 129.293 270.331H125.661V267.71H132.202V276.137H130.028L129.698 274.176C129.066 274.922 128.498 275.448 127.994 275.753C127.127 276.286 126.062 276.552 124.798 276.552C122.717 276.552 121.012 275.831 119.684 274.39C118.299 272.941 117.607 270.959 117.607 268.445C117.607 265.902 118.306 263.864 119.705 262.33C121.104 260.796 122.955 260.029 125.256 260.029C127.251 260.029 128.853 260.537 130.06 261.552C131.275 262.561 131.971 263.821 132.148 265.334H128.92ZM140.97 264.248C141.027 264.248 141.073 264.251 141.108 264.258C141.151 264.258 141.24 264.262 141.375 264.269V267.38C141.183 267.358 141.012 267.344 140.863 267.337C140.714 267.33 140.593 267.326 140.501 267.326C139.28 267.326 138.459 267.724 138.04 268.52C137.806 268.967 137.689 269.656 137.689 270.586V276.137H134.631V264.525H137.529V266.549C137.998 265.775 138.406 265.245 138.754 264.961C139.322 264.485 140.061 264.248 140.97 264.248ZM149.131 270.49C148.939 270.611 148.744 270.711 148.545 270.789C148.353 270.86 148.087 270.927 147.746 270.991L147.064 271.119C146.425 271.233 145.967 271.371 145.69 271.534C145.221 271.811 144.987 272.241 144.987 272.824C144.987 273.342 145.129 273.718 145.413 273.953C145.704 274.18 146.056 274.294 146.467 274.294C147.121 274.294 147.721 274.102 148.268 273.718C148.822 273.335 149.11 272.635 149.131 271.62V270.49ZM147.288 269.074C147.849 269.002 148.25 268.914 148.492 268.807C148.925 268.623 149.141 268.335 149.141 267.944C149.141 267.468 148.975 267.142 148.641 266.964C148.314 266.779 147.831 266.687 147.192 266.687C146.475 266.687 145.967 266.865 145.668 267.22C145.455 267.483 145.313 267.838 145.242 268.285H142.313C142.377 267.27 142.661 266.435 143.165 265.782C143.967 264.759 145.345 264.248 147.298 264.248C148.57 264.248 149.699 264.5 150.686 265.004C151.673 265.508 152.167 266.46 152.167 267.859V273.186C152.167 273.555 152.174 274.002 152.188 274.528C152.21 274.926 152.27 275.196 152.369 275.338C152.469 275.48 152.618 275.597 152.817 275.689V276.137H149.514C149.422 275.902 149.358 275.682 149.323 275.476C149.287 275.27 149.259 275.036 149.237 274.773C148.818 275.228 148.335 275.615 147.788 275.934C147.135 276.311 146.396 276.499 145.573 276.499C144.521 276.499 143.651 276.201 142.962 275.604C142.281 275 141.94 274.148 141.94 273.047C141.94 271.62 142.49 270.586 143.591 269.947C144.195 269.599 145.083 269.35 146.254 269.201L147.288 269.074ZM162.437 270.331C162.437 269.436 162.231 268.644 161.819 267.955C161.415 267.266 160.754 266.922 159.838 266.922C158.737 266.922 157.981 267.444 157.569 268.488C157.356 269.042 157.249 269.745 157.249 270.597C157.249 271.946 157.608 272.895 158.325 273.441C158.751 273.761 159.256 273.921 159.838 273.921C160.683 273.921 161.326 273.594 161.766 272.941C162.214 272.287 162.437 271.417 162.437 270.331ZM160.712 264.269C162.068 264.269 163.215 264.77 164.153 265.771C165.097 266.772 165.569 268.243 165.569 270.181C165.569 272.227 165.108 273.786 164.185 274.858C163.268 275.931 162.086 276.467 160.637 276.467C159.714 276.467 158.947 276.236 158.336 275.775C158.002 275.519 157.675 275.146 157.356 274.656V280.707H154.351V264.525H157.26V266.24C157.587 265.735 157.935 265.338 158.304 265.047C158.979 264.528 159.781 264.269 160.712 264.269ZM173.741 264.226C174.458 264.226 175.108 264.35 175.691 264.599C176.28 264.848 176.763 265.228 177.139 265.739C177.459 266.172 177.654 266.62 177.725 267.081C177.796 267.536 177.832 268.282 177.832 269.319V276.137H174.732V269.074C174.732 268.449 174.625 267.944 174.412 267.561C174.135 267.021 173.61 266.751 172.836 266.751C172.033 266.751 171.422 267.021 171.003 267.561C170.591 268.093 170.385 268.857 170.385 269.851V276.137H167.36V260.487H170.385V266.037C170.826 265.363 171.333 264.894 171.909 264.631C172.491 264.361 173.102 264.226 173.741 264.226ZM183.362 263.14H180.283V260.338H183.362V263.14ZM180.283 264.525H183.362V276.137H180.283V264.525ZM192.812 268.69C192.755 268.257 192.609 267.866 192.375 267.518C192.034 267.049 191.505 266.815 190.787 266.815C189.765 266.815 189.065 267.323 188.689 268.338C188.49 268.878 188.39 269.596 188.39 270.49C188.39 271.343 188.49 272.028 188.689 272.547C189.051 273.512 189.733 273.995 190.734 273.995C191.444 273.995 191.949 273.804 192.247 273.42C192.545 273.037 192.726 272.539 192.79 271.929H195.89C195.819 272.852 195.486 273.725 194.889 274.549C193.937 275.877 192.527 276.542 190.66 276.542C188.792 276.542 187.417 275.988 186.537 274.88C185.656 273.772 185.216 272.333 185.216 270.565C185.216 268.569 185.702 267.017 186.675 265.909C187.648 264.801 188.99 264.248 190.702 264.248C192.158 264.248 193.348 264.574 194.271 265.228C195.201 265.881 195.752 267.035 195.922 268.69H192.812ZM199.95 272.429C200.014 272.969 200.152 273.353 200.365 273.58C200.742 273.985 201.438 274.187 202.453 274.187C203.05 274.187 203.522 274.098 203.87 273.921C204.225 273.743 204.403 273.477 204.403 273.122C204.403 272.781 204.261 272.522 203.977 272.344C203.693 272.167 202.638 271.861 200.813 271.428C199.499 271.101 198.572 270.693 198.032 270.203C197.492 269.72 197.222 269.024 197.222 268.115C197.222 267.042 197.641 266.123 198.48 265.355C199.325 264.581 200.511 264.194 202.038 264.194C203.487 264.194 204.666 264.485 205.575 265.068C206.491 265.643 207.016 266.641 207.151 268.061H204.115C204.073 267.671 203.962 267.362 203.785 267.135C203.451 266.723 202.883 266.517 202.08 266.517C201.42 266.517 200.948 266.62 200.663 266.826C200.387 267.032 200.248 267.273 200.248 267.55C200.248 267.898 200.397 268.15 200.695 268.306C200.994 268.47 202.048 268.75 203.86 269.148C205.067 269.432 205.972 269.862 206.576 270.437C207.173 271.02 207.471 271.748 207.471 272.621C207.471 273.772 207.041 274.713 206.182 275.444C205.33 276.169 204.009 276.531 202.219 276.531C200.394 276.531 199.044 276.147 198.171 275.38C197.304 274.606 196.871 273.623 196.871 272.429H199.95Z" fill="white"/>
<path d="M153.516 134.647H96.7886C88.0305 134.647 80.9307 141.82 80.9307 150.669V205.631C80.9307 214.479 88.0305 221.652 96.7886 221.652H153.516C162.274 221.652 169.374 214.479 169.374 205.631V150.669C169.374 141.82 162.274 134.647 153.516 134.647Z" fill="#9999FF"/>
<path d="M153.516 134.647H96.7886C88.0305 134.647 80.9307 141.82 80.9307 150.669V205.631C80.9307 214.479 88.0305 221.652 96.7886 221.652H153.516C162.274 221.652 169.374 214.479 169.374 205.631V150.669C169.374 141.82 162.274 134.647 153.516 134.647Z" fill="url(#paint1_linear_117_7699)" fill-opacity="0.5"/>
<path d="M150.95 138.877H99.3724C91.4094 138.877 84.9541 145.351 84.9541 153.337V202.942C84.9541 210.927 91.4094 217.401 99.3724 217.401H150.95C158.913 217.401 165.368 210.927 165.368 202.942V153.337C165.368 145.351 158.913 138.877 150.95 138.877Z" fill="#00005B"/>
<path d="M150.95 138.877H99.3724C91.4094 138.877 84.9541 145.351 84.9541 153.337V202.942C84.9541 210.927 91.4094 217.401 99.3724 217.401H150.95C158.913 217.401 165.368 210.927 165.368 202.942V153.337C165.368 145.351 158.913 138.877 150.95 138.877Z" fill="url(#paint2_linear_117_7699)"/>
<path d="M111.384 159.844H115.309C115.918 159.844 115.921 159.844 116.119 160.401C120.079 171.518 124.04 182.635 128 193.753C128.032 193.834 128.058 193.918 128.078 194.004C128.147 194.348 128.053 194.471 127.697 194.474C126.904 194.48 126.111 194.474 125.319 194.474H121.093C120.491 194.474 120.441 194.438 120.249 193.884C119.417 191.448 118.58 189.015 117.76 186.575C117.66 186.279 117.532 186.168 117.207 186.169C113.37 186.181 109.534 186.181 105.697 186.169C105.389 186.169 105.266 186.265 105.174 186.553C104.413 188.961 103.633 191.359 102.86 193.76C102.66 194.381 102.568 194.449 101.923 194.449H96.2995C95.5241 194.449 95.443 194.338 95.6954 193.615C98.1815 186.496 100.667 179.372 103.152 172.245C104.259 169.068 105.383 165.896 106.44 162.702C106.68 161.977 106.693 161.173 106.775 160.402C106.831 159.869 106.823 159.845 107.346 159.845C108.692 159.844 110.038 159.843 111.384 159.844ZM107.296 179.607H115.61C114.187 175.016 112.77 170.446 111.392 166C110.049 170.455 108.674 175.024 107.294 179.607H107.296Z" fill="#9999FF"/>
<path d="M111.384 159.844H115.309C115.918 159.844 115.921 159.844 116.119 160.401C120.079 171.518 124.04 182.635 128 193.753C128.032 193.834 128.058 193.918 128.078 194.004C128.147 194.348 128.053 194.471 127.697 194.474C126.904 194.48 126.111 194.474 125.319 194.474H121.093C120.491 194.474 120.441 194.438 120.249 193.884C119.417 191.448 118.58 189.015 117.76 186.575C117.66 186.279 117.532 186.168 117.207 186.169C113.37 186.181 109.534 186.181 105.697 186.169C105.389 186.169 105.266 186.265 105.174 186.553C104.413 188.961 103.633 191.359 102.86 193.76C102.66 194.381 102.568 194.449 101.923 194.449H96.2995C95.5241 194.449 95.443 194.338 95.6954 193.615C98.1815 186.496 100.667 179.372 103.152 172.245C104.259 169.068 105.383 165.896 106.44 162.702C106.68 161.977 106.693 161.173 106.775 160.402C106.831 159.869 106.823 159.845 107.346 159.845C108.692 159.844 110.038 159.843 111.384 159.844ZM107.296 179.607H115.61C114.187 175.016 112.77 170.446 111.392 166C110.049 170.455 108.674 175.024 107.294 179.607H107.296Z" fill="url(#paint3_linear_117_7699)" fill-opacity="0.7"/>
<path d="M152.055 182.232L153.489 182.235C153.489 182.235 153.481 179.476 153.436 178.565C153.359 177.02 153.118 175.483 152.617 174.039C151.838 171.792 150.367 169.861 148.296 168.656C147.179 168.015 145.959 167.575 144.692 167.354C140.195 166.545 135.246 167.623 132.419 171.428C130.16 174.477 129.499 178.473 129.511 182.181C129.511 182.181 129.537 193.545 141.569 194.443C141.569 194.443 146.841 194.841 151.149 192.962V187.218C151.149 187.218 137.76 191.3 136.886 182.181L143.054 182.202L152.055 182.232ZM141.798 172.405C142.443 172.404 143.081 172.53 143.677 172.777C144.273 173.023 144.815 173.385 145.272 173.841C145.728 174.298 146.091 174.84 146.338 175.436C146.586 176.033 146.714 176.673 146.715 177.32H136.882C136.885 176.014 137.404 174.764 138.326 173.842C139.248 172.921 140.497 172.404 141.798 172.407V172.405Z" fill="#9999FF"/>
<path d="M152.055 182.232L153.489 182.235C153.489 182.235 153.481 179.476 153.436 178.565C153.359 177.02 153.118 175.483 152.617 174.039C151.838 171.792 150.367 169.861 148.296 168.656C147.179 168.015 145.959 167.575 144.692 167.354C140.195 166.545 135.246 167.623 132.419 171.428C130.16 174.477 129.499 178.473 129.511 182.181C129.511 182.181 129.537 193.545 141.569 194.443C141.569 194.443 146.841 194.841 151.149 192.962V187.218C151.149 187.218 137.76 191.3 136.886 182.181L143.054 182.202L152.055 182.232ZM141.798 172.405C142.443 172.404 143.081 172.53 143.677 172.777C144.273 173.023 144.815 173.385 145.272 173.841C145.728 174.298 146.091 174.84 146.338 175.436C146.586 176.033 146.714 176.673 146.715 177.32H136.882C136.885 176.014 137.404 174.764 138.326 173.842C139.248 172.921 140.497 172.404 141.798 172.407V172.405Z" fill="url(#paint4_linear_117_7699)" fill-opacity="0.7"/>
</g>
<defs>
<filter id="filter0_f_117_7699" x="-48.0289" y="-31.1363" width="306.218" height="470.331" filterUnits="userSpaceOnUse" color-interpolation-filters="sRGB">
<feFlood flood-opacity="0" result="BackgroundImageFix"/>
<feBlend mode="normal" in="SourceGraphic" in2="BackgroundImageFix" result="shape"/>
<feGaussianBlur stdDeviation="2.27273" result="effect1_foregroundBlur_117_7699"/>
</filter>
<linearGradient id="paint0_linear_117_7699" x1="663.553" y1="125.682" x2="249.917" y2="125.682" gradientUnits="userSpaceOnUse">
<stop stop-color="white" stop-opacity="0"/>
<stop offset="1" stop-color="white"/>
</linearGradient>
<linearGradient id="paint1_linear_117_7699" x1="125.152" y1="221.652" x2="125.152" y2="134.647" gradientUnits="userSpaceOnUse">
<stop stop-color="white" stop-opacity="0"/>
<stop offset="1" stop-color="white"/>
</linearGradient>
<linearGradient id="paint2_linear_117_7699" x1="125.161" y1="217.401" x2="125.161" y2="138.877" gradientUnits="userSpaceOnUse">
<stop stop-color="#00008E" stop-opacity="0"/>
<stop offset="1" stop-color="#0202D7"/>
</linearGradient>
<linearGradient id="paint3_linear_117_7699" x1="111.833" y1="194.477" x2="111.833" y2="159.844" gradientUnits="userSpaceOnUse">
<stop stop-color="white" stop-opacity="0"/>
<stop offset="1" stop-color="white"/>
</linearGradient>
<linearGradient id="paint4_linear_117_7699" x1="141.5" y1="194.479" x2="141.5" y2="167.102" gradientUnits="userSpaceOnUse">
<stop stop-color="white" stop-opacity="0"/>
<stop offset="1" stop-color="white"/>
</linearGradient>
<clipPath id="clip0_117_7699">
<rect width="250" height="413.636" fill="white" transform="translate(0 0.681641)"/>
</clipPath>
<clipPath id="clip1_117_7699">
<rect width="236.364" height="398.182" fill="white" transform="translate(5.60742 8.86328)"/>
</clipPath>
</defs>
</svg>
